<?xml version="1.0" encoding="utf-8"?>
<!-- Generator: Adobe Illustrator 15.1.0, SVG Export Plug-In . SVG Version: 6.00 Build 0)  -->
<!DOCTYPE svg PUBLIC "-//W3C//DTD SVG 1.1//EN" "http://www.w3.org/Graphics/SVG/1.1/DTD/svg11.dtd">
<svg version="1.1" id="Layer_1" xmlns="http://www.w3.org/2000/svg" xmlns:xlink="http://www.w3.org/1999/xlink" x="0px" y="0px"
	 width="100px" height="100px" viewBox="0 0 100 100" enable-background="new 0 0 100 100" xml:space="preserve">
<path fill-rule="evenodd" clip-rule="evenodd" fill="#676868" d="M84.524,71.975c0,2.346-1.729,4.283-3.98,4.617l0,0h-0.012
	c-0.221,0.032-0.447,0.054-0.68,0.054s-0.459-0.021-0.68-0.054H20.826c-0.222,0.032-0.448,0.054-0.68,0.054
	c-2.578,0-4.672-2.088-4.672-4.671c0-2.088,1.373-3.857,3.27-4.456l0.083-0.065l1.476-0.738l1.4-1.252l1.696-2.287l1.473-2.8
	l1.327-2.8l1.623-4.72l1.4-4.79l0.882-3.906l1.033-4.645l0.219-0.626c1.519-5.405,5.303-9.866,10.26-12.288
	c-1.211-1.716-1.929-3.809-1.929-6.069c0-5.799,4.704-10.503,10.503-10.503c5.805,0,10.504,4.704,10.504,10.503
	c0,2.261-0.715,4.354-1.929,6.069c4.439,2.168,7.938,5.972,9.715,10.621l0.03,0.006l0.148,0.48c0.153,0.442,0.294,0.896,0.418,1.349
	l0.464,1.488l0.887,4.057l0.734,3.394l0.96,3.608l1.254,4.057l1.179,2.875l1.4,3.016l1.327,2.434l1.18,1.478l1.398,1.176
	l2.287,1.257l-0.002,0.012C83.563,68.711,84.524,70.231,84.524,71.975z M50.522,17.215c-2.134,0-3.867,1.737-3.867,3.873
	c0,2.137,1.733,3.868,3.867,3.868c2.139,0,3.871-1.731,3.871-3.868C54.394,18.952,52.661,17.215,50.522,17.215z M50.19,89.97
	c-5.577,0-10.136-4.348-10.479-9.839h20.963C60.33,85.622,55.771,89.97,50.19,89.97z"/>
</svg>
