<?xml version="1.0" encoding="utf-8"?>
<!-- Generator: Adobe Illustrator 15.1.0, SVG Export Plug-In . SVG Version: 6.00 Build 0)  -->
<!DOCTYPE svg PUBLIC "-//W3C//DTD SVG 1.1//EN" "http://www.w3.org/Graphics/SVG/1.1/DTD/svg11.dtd">
<svg version="1.1" id="Layer_1" xmlns="http://www.w3.org/2000/svg" xmlns:xlink="http://www.w3.org/1999/xlink" x="0px" y="0px"
	 width="100px" height="100px" viewBox="0 0 100 100" enable-background="new 0 0 100 100" xml:space="preserve">
<path fill-rule="evenodd" clip-rule="evenodd" fill="#686869" d="M93.947,37.625H77.255l-7.153-7.155h9.237
	c2.404,0,4.348-1.944,4.348-4.352v-7.149c0-2.401-1.943-4.358-4.348-4.358h-44.71c-2.399,0-4.35,1.957-4.35,4.358v7.149
	c0,2.408,1.95,4.352,4.35,4.352h9.243l-7.156,7.155H20.024c-3.205,0-5.799,2.602-5.799,5.802v6.277H7.802v-2.785H5.548l0,0
	c-0.262-3.176,1.643-5.345,2.389-11.653c0.532-4.511-1.331-9.008-1.331-9.008c-3.175-8.489-6.143-2.596-6.151,2.115
	c-0.011,6.881,2.977,18.546,2.977,18.546h0.004H0.252v13.512h3.837c0.266,3.182-1.636,5.346-2.382,11.654
	c-0.528,4.503,1.324,9.007,1.324,9.007c3.182,8.478,6.153,2.59,6.156-2.121c0.008-6.874-2.971-18.528-2.975-18.54h1.589v-2.785
	h6.424v19.174c0,3.188,2.594,5.791,5.799,5.791h16.691l11.923-16.688h45.309c3.205,0,5.801-2.603,5.801-5.802V43.426
	C99.748,40.226,97.152,37.625,93.947,37.625z"/>
</svg>
