<?xml version="1.0" encoding="utf-8"?>
<!-- Generator: Adobe Illustrator 15.1.0, SVG Export Plug-In . SVG Version: 6.00 Build 0)  -->
<!DOCTYPE svg PUBLIC "-//W3C//DTD SVG 1.1//EN" "http://www.w3.org/Graphics/SVG/1.1/DTD/svg11.dtd">
<svg version="1.1" id="Layer_1" xmlns="http://www.w3.org/2000/svg" xmlns:xlink="http://www.w3.org/1999/xlink" x="0px" y="0px"
	 width="100px" height="100px" viewBox="0 0 100 100" enable-background="new 0 0 100 100" xml:space="preserve">
<g>
	<g>
		<path fill-rule="evenodd" clip-rule="evenodd" fill="#676868" d="M67.326,68.697c-0.077-4.258-3.24-4.822-4.081-4.898
			l-0.474-2.602l-0.979-2.943l-1.161-3.127l-1.607-2.678l-1.518-1.604l-2.143-1.701l-2.053-0.895l-2.589-0.623L47.24,47.18
			l-16.337-0.088l-3.752,0.447l-2.675,0.889l-2.053,1.076l-1.875,1.342l-1.788,1.779l-1.696,2.596l-1.428,4.189l-0.701,4.287
			c-0.106,0-0.202,0-0.283,0c-4.191,0-4.191,5.443-4.191,5.443s0,5.807,0.085,9.111c0.047,1.656,0.834,2.822,1.608,3.568h0.044
			l0.315,0.447l1.338,0.629h12.321v0.012c6.864,0.012,15.955,0.023,23.567,0.023v-0.035h14.999v-0.037
			c2.347-0.404,2.676-4.967,2.676-4.967S67.414,73.605,67.326,68.697z M19.43,78.068c-1.999,0-3.615-1.617-3.615-3.617
			c0-1.992,1.616-3.615,3.615-3.615c1.997,0,3.617,1.623,3.617,3.615C23.047,76.451,21.427,78.068,19.43,78.068z M18.672,65.213
			v-1.426l0.356-2.947l1.16-3.303l1.342-2.141l1.784-1.701l2.232-1.334l2.766-0.895l3.66-0.535h6.429l8.571,0.088l3.038,0.268
			l2.319,0.803l2.319,1.43l1.697,2.051l1.34,2.684l0.807,3.033l0.442,2.053l0.089,2.146L18.672,65.213z M58.532,78.068
			c-1.997,0-3.614-1.617-3.614-3.617c0-1.992,1.617-3.615,3.614-3.615c1.995,0,3.616,1.623,3.616,3.615
			C62.148,76.451,60.527,78.068,58.532,78.068z"/>
	</g>
	<path fill-rule="evenodd" clip-rule="evenodd" fill="#676868" d="M14.832,85.748c0-0.211,0.027-0.424,0.077-0.623h9.669
		c0.045,0.199,0.078,0.412,0.078,0.623v4.641c0,0.24-0.036,0.463-0.092,0.682v0.035c0,0-0.035,0.121-0.111,0.301
		c-0.044,0.111-0.1,0.217-0.158,0.322c-0.107,0.188-0.25,0.387-0.427,0.559c-0.033,0.035-0.074,0.064-0.106,0.098l0,0l0,0
		c-0.476,0.426-1.1,0.684-1.788,0.684h-4.462c-0.518,0-0.994-0.146-1.403-0.398c-0.476,0.021-1.302-0.119-1.367-1.383
		c-0.053-1.07,0.023-2.934,0.091-4.264V85.748z"/>
	<path fill-rule="evenodd" clip-rule="evenodd" fill="#676868" d="M53.479,85.125h9.668c0.045,0.199,0.075,0.412,0.075,0.623v4.641
		c0,0.34-0.068,0.662-0.183,0.957c0,0.068,0,0.141,0,0.205c0,1.248-0.959,1.312-1.39,1.277c-0.339,0.158-0.712,0.24-1.105,0.24
		h-4.466c-0.41,0-0.797-0.094-1.141-0.258c-0.042-0.006-0.078-0.006-0.109-0.006c-0.891-0.09-1.518-1.518-1.518-1.518V85.66h0.095
		C53.41,85.479,53.436,85.295,53.479,85.125z"/>
	<g>
		<path fill="#676868" d="M51.627,43.865l3.23,0.838l2.514,1.098l2.947,2.387l1.807,1.908l2.135,3.686l1.16,3.127l1.215,3.9
			c2.498,1.252,4.488,3.828,4.561,7.82c0.051,2.826,0.072,5.443,0.082,7.172c7.298-13.449,18.262-35.158,18.262-44.233
			c0-13.609-11.027-24.631-24.631-24.631h-0.003c-13.61,0-24.631,11.027-24.631,24.631c0,2.868,1.104,7.008,2.833,11.743
			l4.626,0.033L51.627,43.865z M64.905,18.331l0.003-0.003c7.31,0.017,13.23,5.93,13.238,13.24
			c-0.008,7.309-5.929,13.221-13.238,13.239c-7.311-0.018-13.227-5.93-13.24-13.239h-0.004
			C51.682,24.257,57.594,18.336,64.905,18.331z"/>
	</g>
</g>
</svg>
