<?xml version="1.0" encoding="utf-8"?>
<!-- Generator: Adobe Illustrator 15.1.0, SVG Export Plug-In . SVG Version: 6.00 Build 0)  -->
<!DOCTYPE svg PUBLIC "-//W3C//DTD SVG 1.1//EN" "http://www.w3.org/Graphics/SVG/1.1/DTD/svg11.dtd">
<svg version="1.1" id="Layer_1" xmlns="http://www.w3.org/2000/svg" xmlns:xlink="http://www.w3.org/1999/xlink" x="0px" y="0px"
	 width="100px" height="100px" viewBox="0 0 100 100" enable-background="new 0 0 100 100" xml:space="preserve">
<g>
	<g>
		<path fill-rule="evenodd" clip-rule="evenodd" fill="#676868" d="M77.242,48.723c-0.072-4.069-3.096-4.609-3.898-4.681
			l-0.453-2.486l-0.936-2.815l-1.111-2.989l-1.537-2.56l-1.449-1.533l-2.049-1.625l-1.963-0.855l-2.475-0.596l-3.328-0.427
			l-15.615-0.084L38.841,28.5l-2.556,0.848l-1.963,1.029l-1.793,1.282l-1.708,1.702l-1.622,2.48l-1.365,4.006l-0.669,4.097
			c-0.102,0-0.193,0-0.271,0c-4.007,0-4.007,5.204-4.007,5.204s0,5.548,0.083,8.708c0.045,1.582,0.797,2.695,1.537,3.41h0.041
			l0.302,0.428l1.279,0.602h11.778v0.012c6.561,0.012,15.25,0.021,22.527,0.021v-0.033H74.77v-0.035
			c2.244-0.387,2.559-4.748,2.559-4.748S77.328,53.416,77.242,48.723z M31.462,57.682c-1.912,0-3.457-1.545-3.457-3.459
			c0-1.904,1.545-3.454,3.457-3.454c1.908,0,3.458,1.549,3.458,3.454C34.919,56.137,33.37,57.682,31.462,57.682z M30.737,45.394
			V44.03l0.34-2.816l1.109-3.158l1.283-2.046l1.704-1.625l2.133-1.276l2.645-0.853l3.499-0.513h6.146l8.191,0.084l2.904,0.254
			l2.217,0.768l2.219,1.366l1.621,1.961l1.279,2.564l0.771,2.9l0.424,1.961l0.084,2.052L30.737,45.394z M68.838,57.682
			c-1.908,0-3.455-1.545-3.455-3.459c0-1.904,1.547-3.454,3.455-3.454s3.457,1.549,3.457,3.454
			C72.295,56.137,70.746,57.682,68.838,57.682z"/>
		<path fill-rule="evenodd" clip-rule="evenodd" fill="#676868" d="M27.14,64.426c-0.047,0.191-0.073,0.395-0.073,0.596v1.221
			c-0.065,1.27-0.138,3.051-0.087,4.074c0.062,1.209,0.853,1.344,1.307,1.322c0.391,0.24,0.846,0.381,1.341,0.381h4.265
			c0.658,0,1.254-0.248,1.709-0.654c0.031-0.031,0.07-0.061,0.101-0.094c0.169-0.162,0.307-0.354,0.409-0.533
			c0.056-0.102,0.108-0.201,0.151-0.309c0.073-0.17,0.106-0.287,0.106-0.287v-0.033c0.053-0.209,0.087-0.422,0.087-0.652v-4.436
			c0-0.201-0.031-0.404-0.074-0.596H27.14z"/>
		<path fill-rule="evenodd" clip-rule="evenodd" fill="#676868" d="M64.008,64.426c-0.041,0.162-0.066,0.338-0.07,0.514h-0.092
			v5.377c0,0,0.6,1.365,1.453,1.451c0.029,0,0.062,0,0.104,0.004c0.328,0.158,0.699,0.248,1.09,0.248h4.27
			c0.375,0,0.732-0.078,1.057-0.23c0.41,0.033,1.328-0.027,1.328-1.221c0-0.061,0-0.131,0-0.197c0.109-0.279,0.174-0.59,0.174-0.914
			v-4.436c0-0.201-0.027-0.404-0.072-0.596H64.008z"/>
	</g>
	<g>
		<path fill-rule="evenodd" clip-rule="evenodd" fill="#676868" d="M99.465,53.383c-0.059-3.255-2.479-3.687-3.121-3.746
			l-0.361-1.988l-0.75-2.252l-0.887-2.391l-1.23-2.047l-1.16-1.227l-1.641-1.3l-1.568-0.684l-1.98-0.476l-2.662-0.343l-10.475-0.055
			l0.406,1.095l0.596,1.83h2.715l6.555,0.066l2.322,0.204l1.773,0.615l1.773,1.092l1.299,1.569l1.023,2.051l0.617,2.321l0.34,1.568
			l0.066,1.641l-13.619-0.091c0.051,3.745,0.051,6.678,0.051,6.678l-0.004,0.158c-0.061,0.822-0.434,4.307-2.553,5.963v0.627
			c3.059,0.004,6.178,0.006,9.025,0.006V64.24h11.471v-0.027c1.793-0.309,2.045-3.799,2.045-3.799S99.531,57.137,99.465,53.383z
			 M92.738,60.549c-1.525,0-2.764-1.236-2.764-2.766c0-1.523,1.238-2.764,2.764-2.764c1.527,0,2.766,1.24,2.766,2.764
			C95.504,59.312,94.266,60.549,92.738,60.549z"/>
		<path fill-rule="evenodd" clip-rule="evenodd" fill="#676868" d="M88.875,65.945c-0.033,0.129-0.053,0.271-0.057,0.408h-0.072
			v4.305c0,0,0.479,1.09,1.16,1.16c0.025,0,0.053,0,0.084,0.002c0.264,0.127,0.561,0.199,0.871,0.199h3.418
			c0.299,0,0.584-0.062,0.844-0.186c0.33,0.027,1.062-0.021,1.062-0.977c0-0.049,0-0.104,0-0.156
			c0.088-0.225,0.141-0.473,0.141-0.732V66.42c0-0.16-0.023-0.322-0.059-0.475H88.875z"/>
		<path fill-rule="evenodd" clip-rule="evenodd" fill="#676868" d="M23.374,63.455l-0.431-0.611
			c-1.38-1.344-2.139-3.045-2.193-4.922c-0.054-2.104-0.072-5.189-0.078-7.086L7.016,50.926l0.067-1.641l0.339-1.568l0.617-2.321
			l1.024-2.051l1.298-1.569l1.773-1.092l1.774-0.615l2.322-0.204l6.555-0.066h2.831l0.117-0.667l0.806-2.259l-10.512,0.055
			l-2.663,0.343l-1.979,0.476l-1.569,0.684l-1.64,1.3l-1.16,1.227l-1.229,2.047l-0.889,2.391l-0.749,2.252l-0.361,1.988
			c-0.644,0.059-3.062,0.49-3.121,3.746C0.6,57.137,0.6,60.414,0.6,60.414s0.251,3.49,2.046,3.799v0.027h11.469v0.027
			c3.412,0,7.207-0.002,10.825-0.008c0.004-0.021,0.004-0.043,0.008-0.066L23.374,63.455z M7.391,60.549
			c-1.525,0-2.765-1.236-2.765-2.766c0-1.523,1.24-2.764,2.765-2.764c1.527,0,2.765,1.24,2.765,2.764
			C10.156,59.312,8.918,60.549,7.391,60.549z"/>
		<path fill-rule="evenodd" clip-rule="evenodd" fill="#676868" d="M11.257,65.945H3.863c-0.035,0.152-0.058,0.314-0.058,0.475
			v3.549c0,0.26,0.053,0.508,0.14,0.732c0,0.053,0,0.107,0,0.156c0,0.955,0.733,1.004,1.063,0.977
			c0.259,0.123,0.544,0.186,0.845,0.186h3.416c0.313,0,0.609-0.072,0.872-0.199c0.032-0.002,0.06-0.002,0.083-0.002
			c0.682-0.07,1.162-1.16,1.162-1.16v-4.305h-0.073C11.308,66.217,11.29,66.074,11.257,65.945z"/>
	</g>
</g>
</svg>
