<?xml version="1.0" encoding="utf-8"?>
<!-- Generator: Adobe Illustrator 15.1.0, SVG Export Plug-In . SVG Version: 6.00 Build 0)  -->
<!DOCTYPE svg PUBLIC "-//W3C//DTD SVG 1.1//EN" "http://www.w3.org/Graphics/SVG/1.1/DTD/svg11.dtd">
<svg version="1.1" id="Layer_1" xmlns="http://www.w3.org/2000/svg" xmlns:xlink="http://www.w3.org/1999/xlink" x="0px" y="0px"
	 width="100px" height="100px" viewBox="0 0 100 100" enable-background="new 0 0 100 100" xml:space="preserve">
<g>
	<path fill="#686869" d="M28.981,60.999v-31h-19c-5.5,0-10,4.5-10,10v30c0,5.5,4.5,10,10,10h5v15l15-15h25c5.5,0,10-4.5,10-10
		v-9.102c-0.322,0.066-0.659,0.102-1,0.102H28.981z M89.981,4.999h-45c-5.5,0-10,4.5-10,10v40h35l15,15v-15h5c5.5,0,10-4.5,10-10
		v-30C99.981,9.499,95.481,4.999,89.981,4.999z"/>
</g>
</svg>
