<?xml version="1.0" encoding="utf-8"?>
<!-- Generator: Adobe Illustrator 15.1.0, SVG Export Plug-In . SVG Version: 6.00 Build 0)  -->
<!DOCTYPE svg PUBLIC "-//W3C//DTD SVG 1.1//EN" "http://www.w3.org/Graphics/SVG/1.1/DTD/svg11.dtd">
<svg version="1.1" id="Layer_1" xmlns="http://www.w3.org/2000/svg" xmlns:xlink="http://www.w3.org/1999/xlink" x="0px" y="0px"
	 width="100px" height="100px" viewBox="0 0 100 100" enable-background="new 0 0 100 100" xml:space="preserve">
<g>
	<path fill="#686869" d="M58.393,96.552h-16.78c-1.3,0-2.383-0.996-2.491-2.291L38.08,81.802c-3.486-1.307-6.714-3.182-9.631-5.594
		L17.11,81.552c-1.174,0.555-2.581,0.114-3.23-1.012L5.49,66.008c-0.65-1.126-0.328-2.562,0.739-3.304l10.275-7.133
		c-0.311-1.864-0.468-3.731-0.468-5.571c0-1.84,0.157-3.708,0.468-5.574L6.232,37.294c-1.067-0.742-1.39-2.177-0.739-3.303
		l8.387-14.532c0.649-1.126,2.056-1.567,3.23-1.012l11.339,5.343c2.918-2.411,6.146-4.285,9.631-5.592L39.121,5.74
		c0.108-1.295,1.191-2.292,2.491-2.292h16.78c1.301,0,2.384,0.997,2.491,2.292l1.037,12.457c3.482,1.306,6.71,3.18,9.629,5.592
		l11.339-5.345c1.18-0.556,2.583-0.114,3.231,1.011l8.391,14.534c0.65,1.126,0.328,2.562-0.74,3.304l-10.273,7.129
		c0.312,1.862,0.471,3.731,0.471,5.577c0,1.845-0.158,3.713-0.471,5.573l10.274,7.131c1.067,0.741,1.39,2.178,0.739,3.304
		L86.12,80.54c-0.649,1.126-2.055,1.568-3.23,1.012l-11.336-5.344c-2.916,2.411-6.145,4.285-9.633,5.594l-1.037,12.457
		C60.776,95.556,59.693,96.552,58.393,96.552z M50.002,36.767c-7.297,0-13.232,5.936-13.232,13.233s5.936,13.233,13.232,13.233
		c7.296,0,13.232-5.937,13.232-13.233S57.298,36.767,50.002,36.767z"/>
</g>
</svg>
