<?xml version="1.0" encoding="utf-8"?>
<!-- Generator: Adobe Illustrator 15.1.0, SVG Export Plug-In . SVG Version: 6.00 Build 0)  -->
<!DOCTYPE svg PUBLIC "-//W3C//DTD SVG 1.1//EN" "http://www.w3.org/Graphics/SVG/1.1/DTD/svg11.dtd">
<svg version="1.1" id="Layer_1" xmlns="http://www.w3.org/2000/svg" xmlns:xlink="http://www.w3.org/1999/xlink" x="0px" y="0px"
	 width="100px" height="100px" viewBox="0 0 100 100" enable-background="new 0 0 100 100" xml:space="preserve">
<path fill="#686869" d="M21.984,68.063c12.093-0.98,10.714-7.073,13.065-14.987c3.141-10.649,17.41-6.79,17.41-6.79
	s9.924-15.988,23.285-31.272c-7.211-5.311-16.104-8.444-25.737-8.444c-23.997,0-43.445,19.441-43.445,43.424
	c0,24.004,19.448,43.438,43.445,43.438c23.981,0,43.431-19.434,43.431-43.438c0-7.385-1.85-14.335-5.1-20.413
	c-8.06,5.875-18.57,13.035-32.172,21.552C58.748,75.077,9.892,69.021,21.984,68.063z"/>
</svg>
