<?xml version="1.0" encoding="utf-8"?>
<!-- Generator: Adobe Illustrator 15.1.0, SVG Export Plug-In . SVG Version: 6.00 Build 0)  -->
<!DOCTYPE svg PUBLIC "-//W3C//DTD SVG 1.1//EN" "http://www.w3.org/Graphics/SVG/1.1/DTD/svg11.dtd">
<svg version="1.1" id="Layer_1" xmlns="http://www.w3.org/2000/svg" xmlns:xlink="http://www.w3.org/1999/xlink" x="0px" y="0px"
	 width="100px" height="100px" viewBox="0 0 100 100" enable-background="new 0 0 100 100" xml:space="preserve">
<g>
	<polygon fill="#676868" points="64.426,49.668 64.105,48.188 63.521,46 62.555,44.066 61.332,42.584 59.66,41.553 57.986,40.973 
		55.797,40.783 49.612,40.719 44.976,40.719 42.336,41.105 40.339,41.748 38.729,42.712 37.444,43.938 36.476,45.482 35.639,47.865 
		35.383,49.991 35.383,51.021 64.486,51.217 	"/>
	<path fill="#676868" d="M35.929,55.076c-1.442,0-2.606,1.171-2.606,2.608c0,1.442,1.164,2.608,2.606,2.608
		c1.439,0,2.609-1.166,2.609-2.608C38.538,56.247,37.368,55.076,35.929,55.076z"/>
	<path fill="#676868" d="M64.133,55.076c-1.439,0-2.607,1.171-2.607,2.608c0,1.442,1.168,2.608,2.607,2.608s2.611-1.166,2.611-2.608
		C66.744,56.247,65.572,55.076,64.133,55.076z"/>
	<path fill="#676868" d="M82.842,43.859c0.051-0.614,0.076-1.23,0.076-1.847c0-12.473-10.146-22.62-22.619-22.62
		c-7.147,0-13.716,3.333-17.931,8.819c-2.568-1.449-5.49-2.233-8.512-2.233c-9.557,0-17.332,7.774-17.332,17.332
		c0,0.305,0.008,0.61,0.023,0.914c-5.756,3.514-9.426,9.857-9.426,16.767c0,10.819,8.801,19.622,19.617,19.622h46.519
		c10.818,0,19.619-8.803,19.619-19.622C92.877,53.745,88.971,47.268,82.842,43.859z M39.698,69.179c0,0.174-0.025,0.335-0.064,0.492
		v0.025c0,0-0.025,0.089-0.083,0.216c-0.03,0.081-0.071,0.157-0.113,0.235c-0.078,0.134-0.179,0.278-0.308,0.401
		c-0.025,0.025-0.053,0.046-0.076,0.072c-0.345,0.305-0.796,0.492-1.29,0.492h-3.218c-0.375,0-0.718-0.107-1.012-0.289
		c-0.346,0.018-0.941-0.084-0.989-0.997c-0.036-0.771,0.019-2.115,0.067-3.075v-0.92c0-0.152,0.021-0.305,0.055-0.449h6.976
		c0.032,0.145,0.056,0.297,0.056,0.449V69.179z M67.516,69.179c0,0.246-0.051,0.479-0.131,0.69c0,0.052,0,0.104,0,0.15
		c0,0.898-0.691,0.945-1.002,0.92c-0.244,0.113-0.516,0.174-0.799,0.174h-3.219c-0.297,0-0.578-0.068-0.824-0.188
		c-0.031-0.003-0.057-0.003-0.078-0.003c-0.645-0.065-1.098-1.096-1.098-1.096V65.77h0.07c0.004-0.132,0.021-0.265,0.055-0.387
		h6.971c0.035,0.145,0.055,0.297,0.055,0.449V69.179z M68.611,63.75v0.025H57.793V63.8c-5.492,0-12.049-0.008-17.001-0.016v-0.009
		h-8.889l-0.964-0.453L30.712,63H30.68c-0.557-0.541-1.124-1.379-1.159-2.574c-0.062-2.385-0.062-6.571-0.062-6.571
		s0-3.929,3.024-3.929c0.057,0,0.126,0,0.204,0l0.504-3.09l1.03-3.025l1.224-1.869l1.29-1.286l1.353-0.966l1.481-0.777l1.93-0.64
		l2.704-0.323l11.784,0.064l2.513,0.323l1.865,0.448l1.484,0.646l1.545,1.226l1.092,1.158l1.162,1.929L66.486,46l0.707,2.125
		l0.342,1.874c0.607,0.055,2.887,0.464,2.943,3.533c0.062,3.542,0.062,6.634,0.062,6.634S70.303,63.456,68.611,63.75z"/>
</g>
</svg>
