<?xml version="1.0" encoding="utf-8"?>
<!-- Generator: Adobe Illustrator 15.1.0, SVG Export Plug-In . SVG Version: 6.00 Build 0)  -->
<!DOCTYPE svg PUBLIC "-//W3C//DTD SVG 1.1//EN" "http://www.w3.org/Graphics/SVG/1.1/DTD/svg11.dtd">
<svg version="1.1" id="Layer_1" xmlns="http://www.w3.org/2000/svg" xmlns:xlink="http://www.w3.org/1999/xlink" x="0px" y="0px"
	 width="100px" height="100px" viewBox="0 0 100 100" enable-background="new 0 0 100 100" xml:space="preserve">
<g>
	<path fill-rule="evenodd" clip-rule="evenodd" fill="#676868" d="M91.443,35.377C61.77,65.047,62.32,64.498,60.271,66.547
		l0.82,4.582c13.586-13.586-2.48,2.484,31.166-31.171L91.443,35.377z"/>
	<path fill-rule="evenodd" clip-rule="evenodd" fill="#676868" d="M47.195,57.234l4.584,0.82
		c13.586-13.591-2.48,2.482,31.168-31.175l-4.578-0.813C48.692,55.736,49.247,55.184,47.195,57.234z"/>
	<path fill-rule="evenodd" clip-rule="evenodd" fill="#676868" d="M41.172,73.879c0,0.906,0.365,1.723,0.959,2.318
		c0.591,0.594,1.41,0.957,2.314,0.957c0,0,1.916-0.436,4.401-1.062l-6.61-6.613C41.609,71.963,41.172,73.879,41.172,73.879z"/>
	<path fill-rule="evenodd" clip-rule="evenodd" fill="#676868" d="M53.32,59.211l0.877,4.916l4.918,0.881
		c10.041-10.043-0.742,0.74,30.977-30.984l-5.791-5.79C62.152,50.379,56.021,56.506,53.32,59.211z"/>
	<path fill-rule="evenodd" clip-rule="evenodd" fill="#676868" d="M59.742,72.48l-0.881-4.918l-6.873-1.227l-1.227-6.873
		l-4.916-0.879c-0.809,0.809-2.052,4.975-3.055,8.75l8.201,8.199C54.771,74.531,58.932,73.289,59.742,72.48z"/>
	<path fill-rule="evenodd" clip-rule="evenodd" fill="#676868" d="M68.314,68.584c-0.875,0.875-1.449,1.447-4.676,4.678v6.451
		c0,0.021,0.031,2.229-1.348,3.666c-0.896,0.938-2.295,1.412-4.152,1.412c-8.16,0-40.953-0.07-41.114-0.082
		c-0.021-0.006-1.922,0.055-3.203-1.193c-0.93-0.908-1.393-2.377-1.373-4.365c0.077-8.236,0.002-58.504,0-59.01l-0.014-0.259
		c-0.003-0.02-0.186-1.963,0.975-3.238c0.838-0.914,2.272-1.342,4.299-1.352l30.744-0.076l0.968,0.967v10.785
		c0,1.361,1.102,2.466,2.462,2.466h10.785l0.969,0.969v5.715c1.42-1.421,2.969-2.97,4.678-4.677v-2.976L50.387,10.531l-32.661,0.083
		c-3.457-0.04-6.056,0.956-7.825,2.938c-2.314,2.591-2.204,5.867-2.13,6.71c0.004,2.688,0.075,50.822,0,58.844
		c-0.034,3.354,0.924,5.986,2.851,7.822c2.725,2.6,6.254,2.477,6.507,2.457c0,0,32.849,0.086,41.01,0.086
		c3.184,0,5.717-0.961,7.531-2.855c2.742-2.863,2.66-6.678,2.645-7.004V68.584z"/>
</g>
</svg>
