<?xml version="1.0" encoding="utf-8"?>
<!-- Generator: Adobe Illustrator 15.1.0, SVG Export Plug-In . SVG Version: 6.00 Build 0)  -->
<!DOCTYPE svg PUBLIC "-//W3C//DTD SVG 1.1//EN" "http://www.w3.org/Graphics/SVG/1.1/DTD/svg11.dtd">
<svg version="1.1" id="Layer_1" xmlns="http://www.w3.org/2000/svg" xmlns:xlink="http://www.w3.org/1999/xlink" x="0px" y="0px"
	 width="100px" height="100px" viewBox="0 0 100 100" enable-background="new 0 0 100 100" xml:space="preserve">
<g>
	<path fill="#686869" d="M5.495,67.611c2.597-0.779,38.546-11.605,39.884-12.008c1.34-0.404,2.693-1.305,3.83-2.441
		s2.039-2.491,2.441-3.829S62.879,12.045,63.66,9.447c0.783-2.596-0.467-7.045-3.572-3.94L1.555,64.041
		C-1.55,67.145,2.898,68.395,5.495,67.611z"/>
	<path fill="#686869" d="M98.773,40.451c0,0-24.742-24.742-25.379-25.379c-0.639-0.639-1.451-1.478-2.1,0.58
		c-0.918,2.92-12.162,38.813-12.725,40.6c-0.562,1.791-1.305,2.693-2.441,3.83s-2.039,1.879-3.83,2.441
		c-1.787,0.561-37.679,11.805-40.601,12.725c-2.054,0.645-1.217,1.461-0.58,2.098c0.304,0.303,6.063,6.064,12.02,12.02H5.559
		l-5.382,6.279h78.935l-5.381-6.279H56.496l42.162-42.165C100.16,45.7,100.223,41.902,98.773,40.451z"/>
</g>
</svg>
