<?xml version="1.0" encoding="utf-8"?>
<!-- Generator: Adobe Illustrator 15.1.0, SVG Export Plug-In . SVG Version: 6.00 Build 0)  -->
<!DOCTYPE svg PUBLIC "-//W3C//DTD SVG 1.1//EN" "http://www.w3.org/Graphics/SVG/1.1/DTD/svg11.dtd">
<svg version="1.1" id="Layer_1" xmlns="http://www.w3.org/2000/svg" xmlns:xlink="http://www.w3.org/1999/xlink" x="0px" y="0px"
	 width="100px" height="100px" viewBox="0 0 100 100" enable-background="new 0 0 100 100" xml:space="preserve">
<g>
	<path fill="#686869" d="M7.467,26.474c2.441,1.312,36.241,19.469,37.499,20.145c1.259,0.676,2.888,1.002,4.531,1.002
		c1.642,0,3.273-0.326,4.533-1.002c1.258-0.676,35.057-18.832,37.498-20.145c2.443-1.311,4.754-5.428,0.268-5.428H7.2
		C2.716,21.046,5.024,25.163,7.467,26.474z M92.562,36.474c-2.773,1.447-36.836,19.258-38.533,20.145
		c-1.699,0.887-2.891,1.002-4.533,1.002c-1.643,0-2.832-0.115-4.531-1.002C43.268,55.732,9.208,37.921,6.433,36.474
		c-1.952-1.018-1.936,0.176-1.936,1.098s0,36.68,0,36.68c0,2.096,2.792,4.795,4.959,4.795h80.083c2.166,0,4.959-2.699,4.959-4.795
		c0,0,0-35.758,0-36.68S94.516,35.457,92.562,36.474z"/>
</g>
</svg>
