<?xml version="1.0" encoding="utf-8"?>
<!-- Generator: Adobe Illustrator 15.1.0, SVG Export Plug-In . SVG Version: 6.00 Build 0)  -->
<!DOCTYPE svg PUBLIC "-//W3C//DTD SVG 1.1//EN" "http://www.w3.org/Graphics/SVG/1.1/DTD/svg11.dtd">
<svg version="1.1" id="Layer_1" xmlns="http://www.w3.org/2000/svg" xmlns:xlink="http://www.w3.org/1999/xlink" x="0px" y="0px"
	 width="100px" height="100px" viewBox="0 0 100 100" enable-background="new 0 0 100 100" xml:space="preserve">
<g>
	<path fill="#686869" d="M12,12v11.844c35.432,0,64.156,28.725,64.156,64.156H88C88,46.026,53.973,12,12,12z M12,35.688v11.844
		c22.349,0,40.466,18.118,40.466,40.468h11.844C64.311,59.109,40.891,35.688,12,35.688z M23.349,65.299
		C17.083,65.299,12,70.382,12,76.649C12,82.919,17.083,88,23.349,88c6.27,0,11.353-5.081,11.353-11.351
		C34.702,70.382,29.619,65.299,23.349,65.299z"/>
</g>
</svg>
