<?xml version="1.0" encoding="utf-8"?>
<!-- Generator: Adobe Illustrator 15.1.0, SVG Export Plug-In . SVG Version: 6.00 Build 0)  -->
<!DOCTYPE svg PUBLIC "-//W3C//DTD SVG 1.1//EN" "http://www.w3.org/Graphics/SVG/1.1/DTD/svg11.dtd">
<svg version="1.1" id="Layer_1" xmlns="http://www.w3.org/2000/svg" xmlns:xlink="http://www.w3.org/1999/xlink" x="0px" y="0px"
	 width="100px" height="100px" viewBox="0 0 100 100" enable-background="new 0 0 100 100" xml:space="preserve">
<g>
	<path fill="#686869" d="M92.958,43.066V32.772h-5.096v-10.04h-3.653v-9.359h-3.071v9.359h-3.662v10.04h-5.097v10.293h-4.154v46.552
		h28.87V43.066H92.958z M82.368,83.688h-9.355v-8.604h9.355V83.688z M82.368,57.281h-9.355v-8.628h9.355V57.281z M93.353,70.373
		h-9.373V61.76h9.373V70.373z"/>
	<path fill="#686869" d="M28.836,89.618h35.023V10.381H28.836V89.618z M58.683,78.508h-9.348v-8.631h9.348V78.508z M41.274,65.579
		v-8.604h9.364v8.604H41.274z M58.683,52.667h-9.348v-8.612h9.348V52.667z M41.274,39.772v-8.629h9.364v8.629H41.274z M49.335,18.24
		h9.348v8.604h-9.348V18.24z M33.22,18.24h9.355v8.604H33.22V18.24z M33.22,44.055h9.355v8.612H33.22V44.055z M33.22,69.877h9.355
		v8.631H33.22V69.877z"/>
	<path fill="#686869" d="M2.905,89.618h21.011V35.434H2.905V89.618z M8.732,39.691h9.358v8.612H8.732V39.691z M8.732,55.019h9.358
		v8.622H8.732V55.019z M8.732,69.748h9.358v8.612H8.732V69.748z"/>
</g>
</svg>
