<?xml version="1.0" encoding="utf-8"?>
<!-- Generator: Adobe Illustrator 15.1.0, SVG Export Plug-In . SVG Version: 6.00 Build 0)  -->
<!DOCTYPE svg PUBLIC "-//W3C//DTD SVG 1.1//EN" "http://www.w3.org/Graphics/SVG/1.1/DTD/svg11.dtd">
<svg version="1.1" id="Layer_1" xmlns="http://www.w3.org/2000/svg" xmlns:xlink="http://www.w3.org/1999/xlink" x="0px" y="0px"
	 width="100px" height="100px" viewBox="0 0 100 100" enable-background="new 0 0 100 100" xml:space="preserve">
<path fill-rule="evenodd" clip-rule="evenodd" fill="#686869" d="M89.34,82.714c-0.27,1.255-1.002,3.1-3.005,4.021
	c-1.111,0.683-4.555,2.637-7.582,2.354c-0.066-0.008-0.123-0.015-0.189-0.022c-0.529,0.037-0.885-0.028-1.191-0.16
	c-2.438-0.362-2.912-0.893-2.912-0.893l-1.764-0.958l0.059-0.117c0,0-1.656-1.066-3.035-3.942l-0.262-3.398l-0.102-0.255
	c0-7.806-0.016-28.587-0.088-30.331c-0.088-2.142-2.41-1.873-2.41-1.873l-7.785-0.174v42.922c0,0.088-0.008,0.183-0.014,0.262
	H10.436c-0.008-0.079-0.008-0.174-0.008-0.262v-76.47c0-1.982,1.598-3.565,3.573-3.565h41.501c1.975,0,3.572,1.583,3.572,3.565
	v29.067c0.246-0.021,0.508-0.044,0.799-0.087l7.945,0.079c0.318,0.052,0.623,0.117,0.922,0.182c4.291,1.075,5.365,5.192,5.365,5.192
	l0.176,1.888l-0.088,30.128l0.174,1.082l0.814,1.061l0.625,0.812l1.336,0.72l1.438,0.355l1.611,0.27l1.605-0.364l1.402-0.733
	c0.029-0.275,0.158-0.566,0.471-0.791c0.436-0.306,0.574-2.419,0.604-4.523l-0.248-1.548l-1.691-7.878l-2.055-9.389l-0.277-4.467
	l0.182-15.989c1.504,0.218,0.008-0.015,0.008-0.015l-0.008,0.015c-0.529-0.102-1.443-0.232-2.955-0.472
	c-5.723-0.894-5.445-5.81-5.445-5.81l0.078-9.41l-5.613-5.687l-0.732-0.654l3.398-1.96l13.863,11.626l-0.021,0.072
	c1.691,0.72,1.996,3.333,1.996,3.333l0.174,27.181l3.667,18.16l0.719,4.386l0.262,2.847L89.34,82.714z M54.071,17.432
	c0-1.561-1.287-2.847-2.863-2.847H17.667c-1.583,0-2.861,1.286-2.861,2.847v26.302c0,1.591,1.278,2.868,2.861,2.868h33.541
	c1.576,0,2.863-1.277,2.863-2.868V17.432z M79.827,34.882l-0.088-4.379c0,0,0.037-0.872-0.914-1.583l0.283-0.028l-4.648-3.769
	v-0.081c0,0,0,0.029-0.006,0.066l-0.088-0.066l0.094,4.299v1.969c0,0,0.625,2.504,3.043,3.136c2.412,0.61,2.412,0.61,2.412,0.61
	L79.827,34.882z"/>
</svg>
