<?xml version="1.0" encoding="utf-8"?>
<!-- Generator: Adobe Illustrator 15.1.0, SVG Export Plug-In . SVG Version: 6.00 Build 0)  -->
<!DOCTYPE svg PUBLIC "-//W3C//DTD SVG 1.1//EN" "http://www.w3.org/Graphics/SVG/1.1/DTD/svg11.dtd">
<svg version="1.1" id="Layer_1" xmlns="http://www.w3.org/2000/svg" xmlns:xlink="http://www.w3.org/1999/xlink" x="0px" y="0px"
	 width="100px" height="100px" viewBox="0 0 100 100" enable-background="new 0 0 100 100" xml:space="preserve">
<g>
	<path fill="#676868" d="M50,16.147L8.874,32.597v51.259h82.251V32.597L50,16.147z M37.281,72.24c0,0.215-0.033,0.414-0.083,0.607
		v0.031c0,0-0.03,0.109-0.099,0.268c-0.039,0.1-0.089,0.193-0.142,0.289c-0.095,0.166-0.223,0.344-0.378,0.496
		c-0.031,0.031-0.067,0.057-0.096,0.09c-0.424,0.375-0.98,0.607-1.593,0.607h-3.974c-0.462,0-0.887-0.133-1.25-0.357
		c-0.424,0.023-1.159-0.104-1.219-1.23c-0.045-0.953,0.021-2.611,0.082-3.797v-1.137c0-0.188,0.024-0.375,0.067-0.555h8.613
		c0.041,0.18,0.069,0.367,0.069,0.555V72.24z M71.629,72.24c0,0.303-0.061,0.592-0.165,0.854c0,0.062,0,0.127,0,0.184
		c0,1.109-0.853,1.168-1.235,1.137c-0.304,0.141-0.635,0.215-0.985,0.215h-3.979c-0.363,0-0.708-0.084-1.016-0.232
		c-0.036-0.004-0.069-0.004-0.097-0.004c-0.793-0.08-1.354-1.352-1.354-1.352v-5.01h0.087c0.004-0.164,0.026-0.326,0.065-0.479h8.61
		c0.041,0.18,0.067,0.367,0.067,0.555V72.24z M72.979,65.537v0.031h-13.36V65.6c-6.779,0-14.875-0.01-20.987-0.02v-0.012H27.657
		l-1.19-0.559l-0.281-0.398h-0.04c-0.688-0.668-1.389-1.703-1.431-3.178c-0.077-2.945-0.077-8.113-0.077-8.113s0-4.852,3.733-4.852
		c0.072,0,0.158,0,0.253,0l0.623-3.814l1.271-3.736l1.511-2.307l1.592-1.588l1.673-1.192l1.827-0.959l2.383-0.791l3.34-0.399
		l14.549,0.079l3.102,0.398l2.305,0.553l1.829,0.797l1.909,1.513l1.351,1.43l1.434,2.383l1.034,2.787l0.87,2.621l0.423,2.314
		c0.748,0.068,3.566,0.572,3.636,4.363c0.078,4.373,0.078,8.189,0.078,8.189S75.068,65.176,72.979,65.537z"/>
	<path fill="#676868" d="M32.627,54.828c-1.781,0-3.219,1.445-3.219,3.221c0,1.781,1.438,3.221,3.219,3.221
		c1.777,0,3.222-1.439,3.222-3.221C35.849,56.273,34.404,54.828,32.627,54.828z"/>
	<polygon fill="#676868" points="67.811,48.15 67.414,46.324 66.697,43.623 65.503,41.234 63.992,39.404 61.925,38.131 
		59.861,37.415 57.154,37.18 49.521,37.102 43.797,37.102 40.536,37.579 38.073,38.373 36.086,39.562 34.497,41.076 33.303,42.982 
		32.268,45.926 31.951,48.549 31.951,49.822 67.888,50.064 	"/>
	<path fill="#676868" d="M67.453,54.828c-1.779,0-3.221,1.445-3.221,3.221c0,1.781,1.441,3.221,3.221,3.221
		c1.774,0,3.219-1.439,3.219-3.221C70.672,56.273,69.228,54.828,67.453,54.828z"/>
</g>
</svg>
