<?xml version="1.0" encoding="utf-8"?>
<!-- Generator: Adobe Illustrator 15.1.0, SVG Export Plug-In . SVG Version: 6.00 Build 0)  -->
<!DOCTYPE svg PUBLIC "-//W3C//DTD SVG 1.1//EN" "http://www.w3.org/Graphics/SVG/1.1/DTD/svg11.dtd">
<svg version="1.1" id="Layer_1" xmlns="http://www.w3.org/2000/svg" xmlns:xlink="http://www.w3.org/1999/xlink" x="0px" y="0px"
	 width="100px" height="100px" viewBox="0 0 100 100" enable-background="new 0 0 100 100" xml:space="preserve">
<g>
	<path fill="#686869" d="M37,20h-9c-5.5,0-8,2.5-8,8v9c0,5.5,2.5,8,8,8h9c5.5,0,8-2.5,8-8v-9C45,22.5,42.5,20,37,20z M72,20h-9
		c-5.5,0-8,2.5-8,8v9c0,5.5,2.5,8,8,8h9c5.5,0,8-2.5,8-8v-9C80,22.5,77.5,20,72,20z M37,55h-9c-5.5,0-8,2.5-8,8v9c0,5.5,2.5,8,8,8h9
		c5.5,0,8-2.5,8-8v-9C45,57.5,42.5,55,37,55z M72,55h-9c-5.5,0-8,2.5-8,8v9c0,5.5,2.5,8,8,8h9c5.5,0,8-2.5,8-8v-9
		C80,57.5,77.5,55,72,55z"/>
</g>
</svg>
