<?xml version="1.0" encoding="utf-8"?>
<!-- Generator: Adobe Illustrator 15.1.0, SVG Export Plug-In . SVG Version: 6.00 Build 0)  -->
<!DOCTYPE svg PUBLIC "-//W3C//DTD SVG 1.1//EN" "http://www.w3.org/Graphics/SVG/1.1/DTD/svg11.dtd">
<svg version="1.1" id="Layer_1" xmlns="http://www.w3.org/2000/svg" xmlns:xlink="http://www.w3.org/1999/xlink" x="0px" y="0px"
	 width="100px" height="100px" viewBox="0 0 100 100" enable-background="new 0 0 100 100" xml:space="preserve">
<g>
	<path fill="#686869" d="M50,98c26.51,0,48-21.49,48-48C98,23.49,76.51,2,50,2C23.49,2,2,23.49,2,50C2,76.51,23.49,98,50,98z"/>
</g>
<g>
	<path fill="#FFFFFF" d="M37.968,23.886c3.072-1.979,6.849-2.969,11.328-2.969c5.885,0,10.774,1.406,14.668,4.219
		c3.893,2.812,5.84,6.979,5.84,12.5c0,3.386-0.846,6.237-2.533,8.555c-0.986,1.406-2.883,3.203-5.688,5.391l-2.766,2.148
		c-1.507,1.172-2.506,2.539-3,4.102c-0.312,0.99-0.48,2.525-0.506,4.609H44.726c0.156-4.4,0.571-7.441,1.246-9.121
		c0.675-1.68,2.415-3.614,5.219-5.801l2.844-2.227c0.934-0.703,1.688-1.471,2.258-2.305c1.039-1.432,1.559-3.008,1.559-4.727
		c0-1.979-0.578-3.782-1.734-5.41c-1.156-1.627-3.268-2.441-6.333-2.441c-3.014,0-5.151,1.003-6.411,3.008
		c-1.26,2.006-1.89,4.089-1.89,6.25H30.195C30.507,32.246,33.098,26.986,37.968,23.886z M44.453,67.793h11.68v11.289h-11.68V67.793z
		"/>
</g>
</svg>
