<?xml version="1.0" encoding="utf-8"?>
<!-- Generator: Adobe Illustrator 15.1.0, SVG Export Plug-In . SVG Version: 6.00 Build 0)  -->
<!DOCTYPE svg PUBLIC "-//W3C//DTD SVG 1.1//EN" "http://www.w3.org/Graphics/SVG/1.1/DTD/svg11.dtd">
<svg version="1.1" id="Layer_1" xmlns="http://www.w3.org/2000/svg" xmlns:xlink="http://www.w3.org/1999/xlink" x="0px" y="0px"
	 width="100px" height="100px" viewBox="0 0 100 100" enable-background="new 0 0 100 100" xml:space="preserve">
<path fill="#686869" d="M56.132,9C33.903,9,15.833,26.806,15.288,48.976H3l18.393,20.5l18.39-20.5H25.506
	C26.045,32.468,39.545,19.25,56.132,19.25c16.93,0,30.652,13.767,30.652,30.75S73.062,80.75,56.132,80.75
	c-6.79,0-13.06-2.217-18.138-5.965l-7.029,7.52C37.904,87.752,46.639,91,56.132,91c22.572,0,40.869-18.355,40.869-41
	S78.704,9,56.132,9z M52.499,28v23.45l15.027,15.024l4.949-4.949L59.501,48.55V28H52.499z"/>
</svg>
