<?xml version="1.0" encoding="utf-8"?>
<!-- Generator: Adobe Illustrator 15.1.0, SVG Export Plug-In . SVG Version: 6.00 Build 0)  -->
<!DOCTYPE svg PUBLIC "-//W3C//DTD SVG 1.1//EN" "http://www.w3.org/Graphics/SVG/1.1/DTD/svg11.dtd">
<svg version="1.1" id="Layer_1" xmlns="http://www.w3.org/2000/svg" xmlns:xlink="http://www.w3.org/1999/xlink" x="0px" y="0px"
	 width="100px" height="100px" viewBox="0 0 100 100" enable-background="new 0 0 100 100" xml:space="preserve">
<path fill="#686869" d="M89.019,23.674C86.508,8.784,72.92-1.16,58.67,1.466C44.422,4.09,32.399,15.547,34.912,30.438
	c0.541,3.207,2.041,8.227,3.814,11.828L12.853,80.883c-0.953,1.426-1.497,3.99-1.209,5.701l1.663,9.852
	c0.289,1.711,1.863,2.863,3.501,2.562l7.581-1.398c1.639-0.301,3.717-1.742,4.619-3.201l10.233-16.551l0.088-0.107l6.928-1.277
	L58.203,57.07c3.929,0.693,9.562,0.459,12.893-0.154C85.345,54.291,91.533,38.565,89.019,23.674z M76.398,31.307
	c-3.921,5.848-7.919,1.725-13.519-2.371c-5.596-4.096-10.671-6.615-6.754-12.461c3.92-5.85,11.633-7.273,17.231-3.176
	C78.955,17.393,80.315,25.457,76.398,31.307z"/>
</svg>
