<?xml version="1.0" encoding="utf-8"?>
<!-- Generator: Adobe Illustrator 15.1.0, SVG Export Plug-In . SVG Version: 6.00 Build 0)  -->
<!DOCTYPE svg PUBLIC "-//W3C//DTD SVG 1.1//EN" "http://www.w3.org/Graphics/SVG/1.1/DTD/svg11.dtd">
<svg version="1.1" id="Layer_1" xmlns="http://www.w3.org/2000/svg" xmlns:xlink="http://www.w3.org/1999/xlink" x="0px" y="0px"
	 width="100px" height="100px" viewBox="0 0 100 100" enable-background="new 0 0 100 100" xml:space="preserve">
<path fill="#686869" d="M40.898,66.737c-3.354,5.811-1.093,10.592,3.559,13.276c4.647,2.686,9.923,2.253,13.277-3.558
	c3.354-5.81,24.527-57.664,22.685-58.729C78.576,16.663,44.253,60.927,40.898,66.737z M49.999,29.804
	c2.125,0,4.203,0.183,6.227,0.525c2.129-2.663,4.51-5.602,6.831-8.393c-4.142-1.2-8.515-1.852-13.058-1.852
	C22.748,20.084,1.4,43.062,1.4,72.396c0,1.804,0.079,3.609,0.236,5.369c0.239,2.674,2.626,4.641,5.272,4.408
	c2.674-0.24,4.647-2.6,4.409-5.273c-0.132-1.473-0.198-2.986-0.198-4.504C11.12,48.512,28.197,29.804,49.999,29.804z M85.08,35.875
	c-1.356,3.643-2.79,7.358-4.052,10.571c4.941,7.139,7.849,16.103,7.849,25.95c0,1.54-0.068,3.086-0.205,4.592
	c-0.244,2.674,1.727,5.037,4.4,5.281c0.148,0.014,0.295,0.02,0.445,0.02c2.484,0,4.605-1.896,4.832-4.418
	c0.166-1.801,0.25-3.641,0.25-5.475C98.6,58.05,93.484,45.235,85.08,35.875z"/>
</svg>
