<?xml version="1.0" encoding="utf-8"?>
<!-- Generator: Adobe Illustrator 15.1.0, SVG Export Plug-In . SVG Version: 6.00 Build 0)  -->
<!DOCTYPE svg PUBLIC "-//W3C//DTD SVG 1.1//EN" "http://www.w3.org/Graphics/SVG/1.1/DTD/svg11.dtd">
<svg version="1.1" id="Layer_1" xmlns="http://www.w3.org/2000/svg" xmlns:xlink="http://www.w3.org/1999/xlink" x="0px" y="0px"
	 width="100px" height="100px" viewBox="0 0 100 100" enable-background="new 0 0 100 100" xml:space="preserve">
<path fill="#686869" d="M25,65h-5c-2.762,0-5,2.238-5,5s2.238,5,5,5h5c2.762,0,5-2.238,5-5S27.762,65,25,65z M25,45h-5
	c-2.762,0-5,2.238-5,5c0,2.762,2.238,5,5,5h5c2.762,0,5-2.238,5-5C30,47.238,27.762,45,25,45z M25,25h-5c-2.762,0-5,2.238-5,5
	s2.238,5,5,5h5c2.762,0,5-2.238,5-5S27.762,25,25,25z M45,35h35c2.762,0,5-2.238,5-5s-2.238-5-5-5H45c-2.762,0-5,2.238-5,5
	S42.238,35,45,35z M80,45H45c-2.762,0-5,2.238-5,5c0,2.762,2.238,5,5,5h35c2.762,0,5-2.238,5-5C85,47.238,82.762,45,80,45z M80,65
	H45c-2.762,0-5,2.238-5,5s2.238,5,5,5h35c2.762,0,5-2.238,5-5S82.762,65,80,65z"/>
</svg>
