<?xml version="1.0" encoding="utf-8"?>
<!-- Generator: Adobe Illustrator 15.1.0, SVG Export Plug-In . SVG Version: 6.00 Build 0)  -->
<!DOCTYPE svg PUBLIC "-//W3C//DTD SVG 1.1//EN" "http://www.w3.org/Graphics/SVG/1.1/DTD/svg11.dtd">
<svg version="1.1" id="Layer_1" xmlns="http://www.w3.org/2000/svg" xmlns:xlink="http://www.w3.org/1999/xlink" x="0px" y="0px"
	 width="100px" height="100px" viewBox="0 0 100 100" enable-background="new 0 0 100 100" xml:space="preserve">
<g>
	<path fill="#686869" d="M79,37.5h-9v-7c0-14.486-6.674-23-20-23c-13.327,0-20,8.514-20,23v7H20c-2.762,0-5,3.238-5,6v39
		c0,2.75,2.142,5.691,4.759,6.535l5.982,1.93C28.358,91.811,32.75,92.5,35.5,92.5h29c2.75,0,7.141-0.689,9.758-1.535l5.982-1.93
		C82.857,88.191,85,85.25,85,82.5v-39C85,40.738,81.762,37.5,79,37.5z M55.658,77.473l-11.316-0.092l3.229-12.344
		c-2.381-0.963-4.062-3.289-4.062-6.016c0-3.584,2.906-6.495,6.49-6.495c3.587,0,6.491,2.911,6.491,6.495
		c0,2.789-1.76,5.158-4.225,6.076L55.658,77.473z M60,37.5H40v-9c0-7.225,3.986-11,10-11s10,3.775,10,11V37.5z"/>
</g>
</svg>
