<?xml version="1.0" encoding="utf-8"?>
<!-- Generator: Adobe Illustrator 15.1.0, SVG Export Plug-In . SVG Version: 6.00 Build 0)  -->
<!DOCTYPE svg PUBLIC "-//W3C//DTD SVG 1.1//EN" "http://www.w3.org/Graphics/SVG/1.1/DTD/svg11.dtd">
<svg version="1.1" id="Layer_1" xmlns="http://www.w3.org/2000/svg" xmlns:xlink="http://www.w3.org/1999/xlink" x="0px" y="0px"
	 width="100px" height="100px" viewBox="0 0 100 100" enable-background="new 0 0 100 100" xml:space="preserve">
<g>
	<path fill="#686869" d="M50,40.046c-8.285,0-15,6.718-15,15c0,8.285,6.715,15,15,15c8.283,0,15-6.715,15-15
		C65,46.764,58.283,40.046,50,40.046z M90,25.046H78c-1.65,0-3.428-1.28-3.949-2.846l-3.102-9.309
		c-0.523-1.565-2.299-2.846-3.949-2.846H33.001c-1.65,0-3.428,1.28-3.949,2.846L25.95,22.2c-0.523,1.565-2.299,2.846-3.949,2.846
		h-12c-5.5,0-10,4.5-10,10v45c0,5.5,4.5,10,10,10H90c5.5,0,10-4.5,10-10v-45C100,29.546,95.5,25.046,90,25.046z M50,80.046
		c-13.806,0-25-11.193-25-25c0-13.806,11.193-25,25-25c13.804,0,25,11.194,25,25C75,68.853,63.805,80.046,50,80.046z M86.5,42.039
		c-1.932,0-3.5-1.566-3.5-3.5c0-1.932,1.568-3.5,3.5-3.5c1.934,0,3.5,1.568,3.5,3.5C90,40.473,88.434,42.039,86.5,42.039z"/>
</g>
</svg>
