<?xml version="1.0" encoding="utf-8"?>
<!-- Generator: Adobe Illustrator 15.1.0, SVG Export Plug-In . SVG Version: 6.00 Build 0)  -->
<!DOCTYPE svg PUBLIC "-//W3C//DTD SVG 1.1//EN" "http://www.w3.org/Graphics/SVG/1.1/DTD/svg11.dtd">
<svg version="1.1" id="Layer_1" xmlns="http://www.w3.org/2000/svg" xmlns:xlink="http://www.w3.org/1999/xlink" x="0px" y="0px"
	 width="100px" height="100px" viewBox="0 0 100 100" enable-background="new 0 0 100 100" xml:space="preserve">
<g>
	<path fill="#686869" d="M80.001,45H20c-2.762,0-5,2.238-5,5c0,2.761,2.238,5,5,5h60.001c2.762,0,5-2.238,5-5
		C85.001,47.239,82.763,45,80.001,45z M20,35h60.001c2.762,0,5-2.238,5-5s-2.238-5-5-5H20c-2.762,0-5,2.238-5,5S17.238,35,20,35z
		 M80.001,65H20c-2.762,0-5,2.238-5,5s2.238,5,5,5h60.001c2.762,0,5-2.238,5-5S82.763,65,80.001,65z"/>
</g>
</svg>
