<?xml version="1.0" encoding="utf-8"?>
<!-- Generator: Adobe Illustrator 15.1.0, SVG Export Plug-In . SVG Version: 6.00 Build 0)  -->
<!DOCTYPE svg PUBLIC "-//W3C//DTD SVG 1.1//EN" "http://www.w3.org/Graphics/SVG/1.1/DTD/svg11.dtd">
<svg version="1.1" id="Layer_1" xmlns="http://www.w3.org/2000/svg" xmlns:xlink="http://www.w3.org/1999/xlink" x="0px" y="0px"
	 width="100px" height="100px" viewBox="0 0 100 100" enable-background="new 0 0 100 100" xml:space="preserve">
<g>
	<polygon fill="#676868" points="83.871,30.283 83.871,54.185 86.428,30.283 	"/>
	<path fill="#676868" d="M87.725,35.958l-3.857,36.07c-0.051,0.503-0.479,0.915-0.99,0.845c-0.504-0.024-0.898-0.442-0.898-0.944
		V22.925H9.375v49.627c0,2.493,2.028,4.523,4.521,4.523h68.322c2.492,0,4.518-2.03,4.518-4.523l3.889-36.594H87.725z M20.004,30.697
		h2.838l5.143,9.033v-9.033h2.522v12.955h-2.707l-5.274-9.192v9.192h-2.522V30.697z M42.362,70.567H14.108V49.419h28.254V70.567z
		 M42.944,43.652h-9.817V30.697h9.501v2.294h-6.855v2.751h6.293v2.25h-6.293v3.331h7.172V43.652z M46.815,30.697l1.71,7.419
		l0.373,2.064l0.374-2.022l1.463-7.461h2.856l1.539,7.417l0.395,2.066l0.4-1.985l1.727-7.498h2.756l-3.645,12.955h-2.592
		l-1.564-7.576l-0.457-2.505l-0.457,2.505l-1.564,7.576h-2.514l-3.673-12.955H46.815z M75.896,70.873H47.082v-3.619h28.814V70.873z
		 M75.896,61.98H47.082v-3.624h28.814V61.98z M75.896,53.084H47.082v-3.619h28.814V53.084z M70.777,42.812
		c-0.914,0.782-2.207,1.173-3.877,1.173c-1.707,0-3.047-0.385-4.025-1.156C61.898,42.06,61.41,41,61.41,39.653h2.584
		c0.084,0.592,0.248,1.034,0.494,1.327c0.447,0.533,1.217,0.8,2.305,0.8c0.652,0,1.182-0.07,1.59-0.211
		c0.771-0.27,1.156-0.771,1.156-1.503c0-0.428-0.188-0.759-0.566-0.993c-0.379-0.229-0.979-0.431-1.799-0.606l-1.402-0.308
		c-1.379-0.305-2.326-0.636-2.842-0.993c-0.873-0.598-1.309-1.532-1.309-2.804c0-1.16,0.426-2.124,1.281-2.892
		c0.854-0.768,2.107-1.151,3.764-1.151c1.381,0,2.561,0.362,3.537,1.085c0.975,0.724,1.486,1.774,1.533,3.151h-2.602
		c-0.047-0.779-0.396-1.333-1.045-1.661c-0.432-0.217-0.969-0.325-1.613-0.325c-0.715,0-1.285,0.141-1.711,0.422
		c-0.428,0.281-0.641,0.674-0.641,1.178c0,0.463,0.211,0.809,0.631,1.037c0.271,0.152,0.844,0.331,1.723,0.536l2.273,0.536
		c0.996,0.234,1.742,0.548,2.24,0.94c0.771,0.609,1.158,1.491,1.158,2.646C72.15,41.047,71.693,42.03,70.777,42.812z"/>
</g>
</svg>
