<?xml version="1.0" encoding="utf-8"?>
<!-- Generator: Adobe Illustrator 15.1.0, SVG Export Plug-In . SVG Version: 6.00 Build 0)  -->
<!DOCTYPE svg PUBLIC "-//W3C//DTD SVG 1.1//EN" "http://www.w3.org/Graphics/SVG/1.1/DTD/svg11.dtd">
<svg version="1.1" id="Layer_1" xmlns="http://www.w3.org/2000/svg" xmlns:xlink="http://www.w3.org/1999/xlink" x="0px" y="0px"
	 width="100px" height="100px" viewBox="0 0 100 100" enable-background="new 0 0 100 100" xml:space="preserve">
<g>
	<g>
		<path fill="#686869" d="M49.993,59.574c1.643,0,3.271-0.326,4.531-1.002c0.455-0.244,5.173-2.779,11.118-5.973
			c1.061-2.225,1.6-4.555,1.6-6.994l-0.047-1.396H50.509v5.93h9.604c-0.916,1.957-2.123,3.391-3.622,4.309
			c-1.494,0.918-3.338,1.377-5.52,1.377c-3.355,0-6.178-1.113-8.466-3.34c-2.286-2.223-3.432-4.938-3.432-8.141
			c0-3.096,1.101-5.726,3.308-7.89c2.202-2.166,4.939-3.249,8.205-3.249c3.747,0,7.027,1.487,9.841,4.465l4.445-4.398
			c-2.029-2.193-4.105-3.744-6.227-4.646c-2.507-1.067-5.205-1.601-8.094-1.601c-5.521,0-9.997,1.934-13.441,5.797
			c-2.901,3.248-4.354,7.065-4.354,11.454c0,3.088,0.74,5.973,2.2,8.654c5.654,3.037,10.064,5.406,10.504,5.643
			C46.72,59.248,48.351,59.574,49.993,59.574z"/>
		<path fill="#686869" d="M94.795,34.287c0.285-1.322-1.211-3.302-2.771-4.14c-2.441-1.312-36.241-19.468-37.499-20.144
			C53.267,9.327,51.636,9,49.993,9s-3.271,0.326-4.531,1.003c-1.258,0.676-35.057,18.831-37.498,20.144
			c-1.562,0.838-3.06,2.818-2.773,4.142c-0.284,1.323,1.212,3.303,2.771,4.14c1.21,0.65,10.123,5.439,18.96,10.185
			c-0.219-1.285-0.339-2.605-0.339-3.953c0-12.929,10.483-23.416,23.416-23.416c12.935,0,23.417,10.486,23.417,23.416
			c0,1.346-0.119,2.662-0.338,3.945c8.832-4.744,17.734-9.527,18.943-10.177C93.584,37.59,95.082,35.61,94.795,34.287z"/>
	</g>
	<path fill="#686869" d="M93.057,48.428c-2.773,1.447-36.835,19.26-38.532,20.145c-1.699,0.887-2.889,1.002-4.531,1.002
		s-2.832-0.115-4.531-1.002C43.763,67.688,9.704,49.875,6.929,48.428c-1.953-1.018-1.936,0.176-1.936,1.098s0,36.68,0,36.68
		C4.993,88.301,7.784,91,9.952,91h80.081c2.166,0,4.959-2.699,4.959-4.795c0,0,0-35.758,0-36.68S95.01,47.41,93.057,48.428z"/>
</g>
</svg>
