<?xml version="1.0" encoding="utf-8"?>
<!-- Generator: Adobe Illustrator 15.1.0, SVG Export Plug-In . SVG Version: 6.00 Build 0)  -->
<!DOCTYPE svg PUBLIC "-//W3C//DTD SVG 1.1//EN" "http://www.w3.org/Graphics/SVG/1.1/DTD/svg11.dtd">
<svg version="1.1" id="Layer_1" xmlns="http://www.w3.org/2000/svg" xmlns:xlink="http://www.w3.org/1999/xlink" x="0px" y="0px"
	 width="100px" height="100px" viewBox="0 0 100 100" enable-background="new 0 0 100 100" xml:space="preserve">
<path fill="#686869" d="M92.971,13.219C91.252,13.825,6.364,43.738,4.693,44.327c-1.419,0.5-1.735,1.725-0.05,2.399
	C6.65,47.53,23.623,54.33,23.623,54.33h-0.002l11.253,4.51c0,0,54.187-39.792,54.925-40.333c0.736-0.542,1.588,0.475,1.051,1.056
	c-0.537,0.584-39.355,42.567-39.355,42.567c-0.002,0-0.002,0.002-0.002,0.002l-2.264,2.518l2.995,1.611v0.002
	c0,0,23.25,12.514,24.908,13.406c1.451,0.781,3.34,0.133,3.758-1.674c0.494-2.131,14.225-61.307,14.533-62.624
	C95.818,13.658,94.688,12.614,92.971,13.219z M34.771,85.855c0,1.234,0.693,1.578,1.655,0.703
	c1.254-1.137,14.246-12.795,14.246-12.795l-15.901-8.229V85.855z"/>
</svg>
