<?xml version="1.0" encoding="utf-8"?>
<!-- Generator: Adobe Illustrator 15.1.0, SVG Export Plug-In . SVG Version: 6.00 Build 0)  -->
<!DOCTYPE svg PUBLIC "-//W3C//DTD SVG 1.1//EN" "http://www.w3.org/Graphics/SVG/1.1/DTD/svg11.dtd">
<svg version="1.1" id="Layer_1" xmlns="http://www.w3.org/2000/svg" xmlns:xlink="http://www.w3.org/1999/xlink" x="0px" y="0px"
	 width="100px" height="100px" viewBox="0 0 100 100" enable-background="new 0 0 100 100" xml:space="preserve">
<path fill-rule="evenodd" clip-rule="evenodd" fill="#676868" d="M82.35,28.554l0.066,0.21c0,0,2.99,3.198,5.258,8.143
	c0.223,0.492,0.451,0.918,0.678,1.289c2.178,4.797,8.938,24.092-13.91,40.617c-0.047,0.038-0.092,0.065-0.135,0.1l-0.24,1.188
	l0.936,9.487h-4.389l-8.561-0.044c0,0-0.004-0.011-0.006-0.011c-9.344-16.757-19.127-1.168-19.794-0.066l-0.113,0.121H28.917
	l0.667-7.75l0.135-3.336l-1.073-2.672l-3.873-4.808l-3.607-4.548l-2.271-2.4l-2.404-2.008l-2.273-1.467l-3.204-0.669l-2.002-0.669
	V44.57l3.469-0.133l2.939-0.669l1.206-0.802c0,0,0.398-0.531,1.466-3.873c1.071-3.341,7.482-10.82,7.482-10.82l1.87-1.472
	l0.537-1.731l-1.001-2.5c3.502,4.431-0.069-0.172-0.069-0.172l0.069,0.172c-0.672-0.852-1.604-2.031-2.876-3.646
	c-7.881-10.018,6.279-8.42,6.279-8.42l1.123,0.233l0.313-0.05c0,0,11.515,1.836,14.552,7.197c0.022,0.033,0.039,0.066,0.056,0.1
	c0.024,0,0.104-0.017,0.229-0.033l-0.125-0.066c0,0,22.302-9.034,35.818,10.782V28.554z M26.658,35.397
	c-1.654,0-2.996,1.339-2.996,2.993c0,1.66,1.341,3.004,2.996,3.004c1.66,0,3.001-1.344,3.001-3.004
	C29.66,36.736,28.318,35.397,26.658,35.397z M45.921,45.433c-1.527,1.621-2.291,3.579-2.291,5.87c0,1.957,0.603,3.661,1.814,5.122
	c1.212,1.467,3.9,2.622,8.069,3.485c1.922,0.376,3.217,0.796,3.875,1.25c0.664,0.454,0.992,1.096,0.992,1.914
	c0,0.808-0.37,1.499-1.111,2.069c-0.744,0.574-1.861,0.863-3.357,0.863c-3.096,0-4.99-1.301-5.682-3.896l-6.055,1.384
	c1.146,4.547,4.368,7.104,9.668,7.662v4.16h3.52v-4.16c3.24-0.311,5.656-1.367,7.264-3.165c1.6-1.804,2.402-3.817,2.402-6.052
	c0-1.615-0.451-3.076-1.354-4.387c-0.902-1.307-2.018-2.252-3.348-2.838c-1.329-0.593-3.412-1.168-6.262-1.743
	c-1.704-0.338-2.799-0.741-3.283-1.2c-0.485-0.465-0.725-1.035-0.725-1.71c0-1.67,1.291-2.505,3.873-2.505
	c2.439,0,4.031,1.095,4.779,3.302l5.549-1.848c-1.396-3.906-4.363-6.074-8.896-6.5v-3.436h-3.52v3.479
	C49.42,42.854,47.447,43.812,45.921,45.433z M48.429,22.425l1.348,2.744c0,0,14.983-2.451,23.422,3.396l2.787-1.909
	C74.51,25.451,65.445,18.868,48.429,22.425z"/>
</svg>
