<?xml version="1.0" encoding="utf-8"?>
<!-- Generator: Adobe Illustrator 15.1.0, SVG Export Plug-In . SVG Version: 6.00 Build 0)  -->
<!DOCTYPE svg PUBLIC "-//W3C//DTD SVG 1.1//EN" "http://www.w3.org/Graphics/SVG/1.1/DTD/svg11.dtd">
<svg version="1.1" id="Layer_1" xmlns="http://www.w3.org/2000/svg" xmlns:xlink="http://www.w3.org/1999/xlink" x="0px" y="0px"
	 width="100px" height="100px" viewBox="0 0 100 100" enable-background="new 0 0 100 100" xml:space="preserve">
<g>
	<path fill="#686869" d="M40.997,34.274c0,2.297,0.861,4.116,2.584,5.455c0.957,0.738,2.434,1.422,4.43,2.051V27.383
		c-2.379,0.055-4.143,0.691-5.291,1.907C41.571,30.507,40.997,32.168,40.997,34.274z"/>
	<path fill="#686869" d="M56.814,56.668c-0.945-0.793-2.555-1.613-4.826-2.461v16.037c2.136-0.272,3.69-0.765,4.664-1.477
		c1.703-1.257,2.555-3.431,2.555-6.521C59.207,59.895,58.41,58.036,56.814,56.668z"/>
	<path fill="#686869" d="M50,2C23.49,2,2,23.49,2,50c0,26.51,21.49,48,48,48c26.509,0,47.999-21.49,47.999-48
		C97.999,23.49,76.509,2,50,2z M62.98,76.027c-3.09,1.914-6.754,3.035-10.992,3.363v8.244H48.01v-8.162
		c-5.387-0.602-9.407-1.777-12.059-3.527c-4.676-3.144-6.973-8.504-6.891-16.078h11.074c0.383,3.445,0.916,5.757,1.6,6.932
		c1.066,1.832,3.158,3.021,6.275,3.568V52.854l-3.322-0.984c-5.223-1.531-8.907-3.664-11.054-6.398
		c-2.147-2.734-3.22-6.029-3.22-9.885c0-2.543,0.417-4.854,1.251-6.932c0.834-2.078,2.003-3.869,3.507-5.373
		c1.941-1.941,4.102-3.281,6.48-4.02c1.449-0.465,3.568-0.806,6.357-1.025v-5.455h3.978v5.537c4.437,0.355,7.92,1.45,10.451,3.281
		c4.6,2.926,6.981,7.67,7.145,14.232H58.797c-0.217-2.434-0.621-4.21-1.215-5.332c-1.027-1.941-2.891-3.008-5.594-3.199v15.627
		c6.479,2.242,10.835,4.225,13.068,5.947c3.674,2.871,5.512,6.917,5.512,12.14C70.568,67.906,68.039,72.91,62.98,76.027z"/>
</g>
</svg>
