<?xml version="1.0" encoding="utf-8"?>
<!-- Generator: Adobe Illustrator 15.1.0, SVG Export Plug-In . SVG Version: 6.00 Build 0)  -->
<!DOCTYPE svg PUBLIC "-//W3C//DTD SVG 1.1//EN" "http://www.w3.org/Graphics/SVG/1.1/DTD/svg11.dtd">
<svg version="1.1" id="Layer_1" xmlns="http://www.w3.org/2000/svg" xmlns:xlink="http://www.w3.org/1999/xlink" x="0px" y="0px"
	 width="100px" height="100px" viewBox="0 0 100 100" enable-background="new 0 0 100 100" xml:space="preserve">
<g>
	<path fill="#686869" d="M7.5,32.5h84.998c2.854,0,2.385-3.04,0.965-3.535c-1.42-0.496-17.215-6.465-19.965-6.465h-4.5v-15H31v15
		h-4.5c-2.75,0-18.544,5.969-19.964,6.465C5.116,29.459,4.647,32.5,7.5,32.5z M93.498,38H6.5c-2.75,0-5.5,3.25-5.5,6v17.5
		c0,2.75,2.75,6,5.5,6h9.912l-4.412,25h75.998l-4.412-25h9.912c2.75,0,5.5-3.25,5.5-6V44C98.998,41.25,96.248,38,93.498,38z
		 M22,82.499L29,50h41.999l7,32.5H22z"/>
</g>
</svg>
