<?xml version="1.0" encoding="utf-8"?>
<!-- Generator: Adobe Illustrator 15.1.0, SVG Export Plug-In . SVG Version: 6.00 Build 0)  -->
<!DOCTYPE svg PUBLIC "-//W3C//DTD SVG 1.1//EN" "http://www.w3.org/Graphics/SVG/1.1/DTD/svg11.dtd">
<svg version="1.1" id="Layer_1" xmlns="http://www.w3.org/2000/svg" xmlns:xlink="http://www.w3.org/1999/xlink" x="0px" y="0px"
	 width="100px" height="100px" viewBox="0 0 100 100" enable-background="new 0 0 100 100" xml:space="preserve">
<g>
	<polygon fill="#676868" points="58.677,35.216 58.319,33.562 57.667,31.116 56.59,28.955 55.222,27.303 53.354,26.151 
		51.481,25.502 49.036,25.289 42.129,25.217 36.947,25.217 33.997,25.647 31.768,26.369 29.97,27.444 28.531,28.812 27.451,30.539 
		26.515,33.201 26.23,35.576 26.23,36.727 58.749,36.945 	"/>
	<path fill="#676868" d="M26.84,41.258c-1.612,0-2.913,1.307-2.913,2.914c0,1.61,1.301,2.915,2.913,2.915
		c1.609,0,2.915-1.305,2.915-2.915C29.755,42.564,28.449,41.258,26.84,41.258z"/>
	<path fill="#676868" d="M91.354,76.104L73.592,58.344c2.51-4.856,3.939-10.359,3.939-16.196c0-19.528-15.826-35.354-35.348-35.354
		c-19.525,0-35.352,15.826-35.352,35.354c0,19.521,15.826,35.348,35.352,35.348c5.797,0,11.26-1.413,16.086-3.886l17.789,17.784
		c2.418,2.419,6.34,2.419,8.754,0l6.541-6.542C93.771,82.438,93.771,78.52,91.354,76.104z M31.051,57.015
		c0,0.192-0.029,0.372-0.074,0.548v0.027c0,0-0.027,0.1-0.092,0.243c-0.034,0.09-0.078,0.175-0.127,0.26
		c-0.085,0.151-0.199,0.313-0.343,0.451c-0.024,0.029-0.06,0.053-0.086,0.078c-0.383,0.343-0.885,0.552-1.44,0.552h-3.596
		c-0.418,0-0.801-0.119-1.13-0.321c-0.384,0.018-1.049-0.095-1.103-1.114c-0.043-0.862,0.021-2.365,0.074-3.435v-1.03
		c0-0.168,0.021-0.341,0.061-0.5h7.793c0.037,0.159,0.062,0.332,0.062,0.5V57.015z M62.131,57.015c0,0.272-0.057,0.535-0.146,0.771
		c0,0.057,0,0.113,0,0.166c0,1.004-0.773,1.059-1.123,1.029c-0.271,0.128-0.573,0.193-0.889,0.193h-3.598
		c-0.333,0-0.645-0.076-0.92-0.209c-0.035-0.003-0.062-0.003-0.086-0.003c-0.722-0.072-1.227-1.224-1.227-1.224v-4.535h0.076
		c0.005-0.146,0.023-0.293,0.059-0.43h7.791c0.039,0.159,0.062,0.332,0.062,0.5V57.015z M63.354,50.946v0.029H51.267v0.028
		c-6.136,0-13.459-0.008-18.993-0.02v-0.009h-9.93l-1.078-0.506l-0.255-0.361h-0.035c-0.624-0.602-1.259-1.54-1.296-2.876
		c-0.068-2.663-0.068-7.342-0.068-7.342s0-4.385,3.379-4.385c0.062,0,0.143,0,0.229,0l0.562-3.456l1.152-3.377l1.366-2.091
		l1.438-1.435l1.514-1.082l1.654-0.866l2.156-0.715l3.021-0.361l13.168,0.072l2.806,0.358l2.086,0.503l1.653,0.721l1.729,1.369
		l1.224,1.292l1.294,2.158l0.935,2.519l0.789,2.375l0.384,2.095c0.675,0.062,3.226,0.516,3.287,3.948
		c0.072,3.956,0.072,7.41,0.072,7.41S65.243,50.621,63.354,50.946z"/>
	<circle fill="#676868" cx="58.352" cy="44.172" r="2.915"/>
</g>
</svg>
