<?xml version="1.0" encoding="utf-8"?>
<!-- Generator: Adobe Illustrator 15.1.0, SVG Export Plug-In . SVG Version: 6.00 Build 0)  -->
<!DOCTYPE svg PUBLIC "-//W3C//DTD SVG 1.1//EN" "http://www.w3.org/Graphics/SVG/1.1/DTD/svg11.dtd">
<svg version="1.1" id="Layer_1" xmlns="http://www.w3.org/2000/svg" xmlns:xlink="http://www.w3.org/1999/xlink" x="0px" y="0px"
	 width="100px" height="100px" viewBox="0 0 100 100" enable-background="new 0 0 100 100" xml:space="preserve">
<g>
	<path fill="#686869" d="M87.568,77.382L68.674,58.488c2.85-4.681,4.49-10.177,4.49-16.058c0-17.083-14.803-31.885-31.888-31.885
		c-17.082,0-30.932,13.85-30.932,30.934s14.803,31.885,31.884,31.885c5.68,0,11-1.538,15.574-4.21l18.996,18.997
		c1.859,1.859,4.873,1.859,6.73,0l4.713-4.711C90.102,81.581,89.428,79.241,87.568,77.382z M19.864,41.479
		c0-11.828,9.588-21.416,21.412-21.416c11.829,0,22.368,10.539,22.368,22.367c0,11.827-9.588,21.416-21.416,21.416
		C30.403,63.847,19.864,53.308,19.864,41.479z"/>
</g>
</svg>
