<?xml version="1.0" encoding="utf-8"?>
<!-- Generator: Adobe Illustrator 15.1.0, SVG Export Plug-In . SVG Version: 6.00 Build 0)  -->
<!DOCTYPE svg PUBLIC "-//W3C//DTD SVG 1.1//EN" "http://www.w3.org/Graphics/SVG/1.1/DTD/svg11.dtd">
<svg version="1.1" id="Layer_1" xmlns="http://www.w3.org/2000/svg" xmlns:xlink="http://www.w3.org/1999/xlink" x="0px" y="0px"
	 width="100px" height="100px" viewBox="0 0 100 100" enable-background="new 0 0 100 100" xml:space="preserve">
<g>
	<path fill="#686869" d="M75,65.001c-3.436,0-6.592,1.168-9.121,3.112L39.784,52.456c0.131-0.801,0.217-1.618,0.217-2.455
		c0-0.839-0.086-1.654-0.217-2.456l26.095-15.657c2.529,1.945,5.686,3.113,9.121,3.113c8.283,0,15-6.717,15-15s-6.717-15-15-15
		s-14.999,6.717-14.999,15c0,0.837,0.086,1.654,0.219,2.455L34.124,38.113c-2.529-1.944-5.686-3.112-9.123-3.112
		c-8.283,0-15,6.717-15,15s6.717,15,15,15c3.438,0,6.594-1.168,9.123-3.113L60.22,77.545c-0.133,0.802-0.219,1.617-0.219,2.456
		c0,8.283,6.716,15,14.999,15s15-6.717,15-15S83.283,65.001,75,65.001z"/>
</g>
</svg>
