<?xml version="1.0" encoding="utf-8"?>
<!-- Generator: Adobe Illustrator 15.1.0, SVG Export Plug-In . SVG Version: 6.00 Build 0)  -->
<!DOCTYPE svg PUBLIC "-//W3C//DTD SVG 1.1//EN" "http://www.w3.org/Graphics/SVG/1.1/DTD/svg11.dtd">
<svg version="1.1" id="Layer_1" xmlns="http://www.w3.org/2000/svg" xmlns:xlink="http://www.w3.org/1999/xlink" x="0px" y="0px"
	 width="100px" height="100px" viewBox="0 0 100 100" enable-background="new 0 0 100 100" xml:space="preserve">
<path fill="#686869" d="M20,85c0,5.523,4.477,10,10,10c5.525,0,10-4.477,10-10s-4.475-10-10-10C24.477,75,20,79.477,20,85z M70,85
	c0,5.523,4.477,10,10,10c5.525,0,10-4.477,10-10s-4.475-10-10-10C74.477,75,70,79.477,70,85z M37.736,61.361l55.342-15.812
	C94.135,45.247,95,44.1,95,43V15.5H24.5V7c0-1.1-0.898-2-2-2H7C5.9,5,5,5.9,5,7v8h9.719l9.838,45.283L25.5,65v7.5c0,1.1,0.9,2,2,2
	H30h50h13c1.102,0,2-0.9,2-2V65H38.762C33.014,65,32.896,62.746,37.736,61.361z"/>
</svg>
