<?xml version="1.0" encoding="utf-8"?>
<!-- Generator: Adobe Illustrator 15.1.0, SVG Export Plug-In . SVG Version: 6.00 Build 0)  -->
<!DOCTYPE svg PUBLIC "-//W3C//DTD SVG 1.1//EN" "http://www.w3.org/Graphics/SVG/1.1/DTD/svg11.dtd">
<svg version="1.1" id="Layer_1" xmlns="http://www.w3.org/2000/svg" xmlns:xlink="http://www.w3.org/1999/xlink" x="0px" y="0px"
	 width="100px" height="100px" viewBox="0 0 100 100" enable-background="new 0 0 100 100" xml:space="preserve">
<path fill="#686869" d="M20.5,70.5L5,85l10,10l14.5-15.5l10,10.5V60.5H10L20.5,70.5z M95.001,15l-10-10l-14.5,15.5l-10-10.5v29.5
	h29.5l-10.5-10L95.001,15z"/>
<path fill="#686869" d="M29.5,20.5L15,5L5,15l15.5,14.5L10,39.5h29.5V10L29.5,20.5z M85.001,95l10-10l-15.5-14.5l10.5-10h-29.5V90
	l10-10.5L85.001,95z"/>
</svg>
