<?xml version="1.0" encoding="utf-8"?>
<!-- Generator: Adobe Illustrator 15.1.0, SVG Export Plug-In . SVG Version: 6.00 Build 0)  -->
<!DOCTYPE svg PUBLIC "-//W3C//DTD SVG 1.1//EN" "http://www.w3.org/Graphics/SVG/1.1/DTD/svg11.dtd">
<svg version="1.1" id="Layer_1" xmlns="http://www.w3.org/2000/svg" xmlns:xlink="http://www.w3.org/1999/xlink" x="0px" y="0px"
	 width="100px" height="100px" viewBox="0 0 100 100" enable-background="new 0 0 100 100" xml:space="preserve">
<path fill="#686869" d="M58.061,10.562l12.021,9.73L54.938,34.937l10,10l14.66-15.161l9.963,12.286v-31.5H58.061z M34.938,54.939
	L20.285,70.092l-9.847-12.152v31.5h31.5l-12.153-9.848l15.153-14.652L34.938,54.939z"/>
<path fill="#686869" d="M89.438,58.062l-9.73,12.021L65.061,54.939l-10,10L70.223,79.6l-12.285,9.963h31.5V58.062z M45.062,34.938
	L29.908,20.285l12.153-9.847h-31.5v31.5l9.847-12.153l14.653,15.153L45.062,34.938z"/>
</svg>
