<?xml version="1.0" encoding="utf-8"?>
<!-- Generator: Adobe Illustrator 15.1.0, SVG Export Plug-In . SVG Version: 6.00 Build 0)  -->
<!DOCTYPE svg PUBLIC "-//W3C//DTD SVG 1.1//EN" "http://www.w3.org/Graphics/SVG/1.1/DTD/svg11.dtd">
<svg version="1.1" id="Layer_1" xmlns="http://www.w3.org/2000/svg" xmlns:xlink="http://www.w3.org/1999/xlink" x="0px" y="0px"
	 width="100px" height="100px" viewBox="0 0 100 100" enable-background="new 0 0 100 100" xml:space="preserve">
<path fill="#686869" d="M50,2C23.489,2,2,23.49,2,50c0,26.512,21.489,48,48,48c26.51,0,48-21.488,48-48C98,23.49,76.51,2,50,2z
	 M62.885,70.707c-1.965,0.936-3.742,1.594-5.33,1.971c-1.592,0.375-3.314,0.564-5.162,0.564c-2.1,0-3.956-0.27-5.57-0.805
	c-1.612-0.539-2.987-1.303-4.13-2.293c-1.139-0.996-1.93-2.053-2.369-3.17c-0.439-1.121-0.658-2.742-0.658-4.867V45.805h-5.076
	v-6.578c1.803-0.594,3.35-1.442,4.636-2.552c1.286-1.106,2.319-2.438,3.097-3.991c0.779-1.551,1.314-3.527,1.608-5.926h6.53v11.75
	h10.901v7.297H50.46v11.92c0,2.695,0.142,4.424,0.426,5.191c0.282,0.764,0.807,1.375,1.571,1.832
	c1.02,0.615,2.182,0.924,3.488,0.924c2.326,0,4.639-0.766,6.939-2.295V70.707z"/>
</svg>
