<?xml version="1.0" encoding="utf-8"?>
<!-- Generator: Adobe Illustrator 15.1.0, SVG Export Plug-In . SVG Version: 6.00 Build 0)  -->
<!DOCTYPE svg PUBLIC "-//W3C//DTD SVG 1.1//EN" "http://www.w3.org/Graphics/SVG/1.1/DTD/svg11.dtd">
<svg version="1.1" id="Layer_1" xmlns="http://www.w3.org/2000/svg" xmlns:xlink="http://www.w3.org/1999/xlink" x="0px" y="0px"
	 width="100px" height="100px" viewBox="0 0 100 100" enable-background="new 0 0 100 100" xml:space="preserve">
<path fill="#686869" d="M45.484,36.425c-1.209-4.248-3.158-5.505-6.191-5.505c-0.328,0-0.656,0.045-0.973,0.135
	c-1.312,0.369-2.355,1.467-2.938,3.094c-0.592,1.653-0.633,3.373-0.117,5.34c0.922,3.502,3.412,6.043,5.924,6.043
	c0.33,0,0.656-0.045,0.971-0.133C44.904,44.625,46.623,40.434,45.484,36.425z M50,2C23.49,2,2,23.49,2,50c0,26.512,21.49,48,48,48
	c26.512,0,48-21.488,48-48C98,23.49,76.512,2,50,2z M47.234,70.609c-3.014,1.465-6.262,1.623-7.518,1.623
	c-0.238,0-0.377-0.006-0.398-0.006c0,0-0.09,0.002-0.244,0.002c-1.957,0-11.713-0.449-11.713-9.336
	c0-8.73,10.623-9.412,13.879-9.412l0.086,0.002c-1.881-2.51-1.49-5.045-1.49-5.045c-0.166,0.012-0.406,0.023-0.703,0.023
	c-1.227,0-3.59-0.195-5.623-1.508c-2.486-1.6-3.746-4.324-3.746-8.098c0-10.652,11.633-11.084,11.748-11.086h11.619v0.252
	c0,1.301-2.332,1.548-3.926,1.766c-0.537,0.074-1.621,0.188-1.928,0.346c2.941,1.568,3.418,4.039,3.418,7.721
	c0,4.188-1.641,6.404-3.381,7.961c-1.074,0.963-1.924,1.723-1.924,2.732c0,0.992,1.164,2.014,2.51,3.195
	c2.207,1.939,5.23,4.594,5.23,9.053C53.131,65.408,51.146,68.711,47.234,70.609z M72.639,49.955h-7.578v7.58H60.26v-7.58h-7.578
	v-4.799h7.578v-7.58h4.801v7.58h7.578V49.955z M41.113,55.758c-0.26,0-0.521,0.01-0.783,0.027c-2.223,0.164-4.268,0.994-5.756,2.344
	c-1.469,1.33-2.219,3.002-2.111,4.707c0.223,3.549,4.039,5.635,8.674,5.297c4.564-0.332,7.604-2.953,7.381-6.508
	C48.307,58.279,45.402,55.758,41.113,55.758z"/>
</svg>
