<?xml version="1.0" encoding="utf-8"?>
<!-- Generator: Adobe Illustrator 15.1.0, SVG Export Plug-In . SVG Version: 6.00 Build 0)  -->
<!DOCTYPE svg PUBLIC "-//W3C//DTD SVG 1.1//EN" "http://www.w3.org/Graphics/SVG/1.1/DTD/svg11.dtd">
<svg version="1.1" id="Layer_1" xmlns="http://www.w3.org/2000/svg" xmlns:xlink="http://www.w3.org/1999/xlink" x="0px" y="0px"
	 width="100px" height="100px" viewBox="0 0 100 100" enable-background="new 0 0 100 100" xml:space="preserve">
<path fill="#686869" d="M50,2C23.49,2,2,23.491,2,50c0,26.512,21.49,48,48,48c26.511,0,48.001-21.488,48.001-48
	C98.001,23.491,76.511,2,50,2z M38.252,69.893H28.53V38.616h9.723V69.893z M33.327,34.778c-3.07,0-5.053-2.174-5.053-4.859
	c0-2.751,2.047-4.861,5.18-4.861c3.136,0,5.055,2.11,5.117,4.861C38.571,32.604,36.589,34.778,33.327,34.778z M73.747,69.893h-9.721
	V52.559c0-4.029-1.408-6.779-4.926-6.779c-2.687,0-4.284,1.855-4.987,3.646c-0.256,0.639-0.322,1.535-0.322,2.43v18.037h-9.72
	V48.594c0-3.9-0.127-7.162-0.256-9.978h8.443l0.447,4.349h0.191c1.279-2.047,4.414-5.052,9.659-5.052
	c6.396,0,11.191,4.285,11.191,13.496V69.893z"/>
</svg>
