<?xml version="1.0" encoding="utf-8"?>
<!-- Generator: Adobe Illustrator 15.1.0, SVG Export Plug-In . SVG Version: 6.00 Build 0)  -->
<!DOCTYPE svg PUBLIC "-//W3C//DTD SVG 1.1//EN" "http://www.w3.org/Graphics/SVG/1.1/DTD/svg11.dtd">
<svg version="1.1" id="Layer_1" xmlns="http://www.w3.org/2000/svg" xmlns:xlink="http://www.w3.org/1999/xlink" x="0px" y="0px"
	 width="100px" height="100px" viewBox="0 0 100 100" enable-background="new 0 0 100 100" xml:space="preserve">
<path fill="#686869" d="M9.949,27.944c0,7.468,2.494,12.859,7.412,16.027c4.025,2.594,8.701,2.982,11.129,2.982
	c0.59,0,1.062-0.023,1.393-0.045c0,0-0.771,5.016,2.949,9.982l-0.168-0.002c-6.445,0-27.469,1.346-27.469,18.629
	c0,17.584,19.309,18.477,23.182,18.477c0.303,0,0.48-0.006,0.48-0.006C28.9,93.99,29.178,94,29.648,94
	c2.486,0,8.912-0.312,14.879-3.213c7.74-3.758,11.668-10.293,11.668-19.424c0-8.826-5.982-14.078-10.35-17.916
	c-2.666-2.338-4.969-4.359-4.969-6.322c0-2.002,1.682-3.506,3.809-5.41c3.445-3.082,6.691-7.466,6.691-15.755
	c0-7.287-0.945-12.178-6.766-15.281c0.607-0.311,2.752-0.537,3.814-0.684c3.154-0.431,7.77-0.92,7.77-3.496V6H33.201
	C32.971,6.006,9.949,6.86,9.949,27.944z M47.066,73.008c0.439,7.033-5.576,12.221-14.607,12.879
	c-9.174,0.67-16.727-3.461-17.166-10.484c-0.213-3.373,1.271-6.684,4.176-9.316c2.947-2.668,6.992-4.314,11.393-4.639
	c0.52-0.033,1.035-0.053,1.549-0.053C40.9,61.395,46.65,66.385,47.066,73.008z M41.062,23.131c2.256,7.934-1.15,16.23-6.578,17.759
	c-0.623,0.174-1.27,0.264-1.922,0.264c-4.973,0-9.9-5.031-11.725-11.959c-1.02-3.894-0.938-7.296,0.232-10.568
	c1.15-3.219,3.215-5.393,5.814-6.124c0.625-0.177,1.273-0.267,1.924-0.267C34.812,12.236,38.672,14.725,41.062,23.131z
	 M79.805,40.41v-15h-9.5v15h-15v9.5h15v15h9.5v-15h15v-9.5H79.805z"/>
</svg>
