<?xml version="1.0" encoding="utf-8"?>
<!-- Generator: Adobe Illustrator 15.1.0, SVG Export Plug-In . SVG Version: 6.00 Build 0)  -->
<!DOCTYPE svg PUBLIC "-//W3C//DTD SVG 1.1//EN" "http://www.w3.org/Graphics/SVG/1.1/DTD/svg11.dtd">
<svg version="1.1" id="Layer_1" xmlns="http://www.w3.org/2000/svg" xmlns:xlink="http://www.w3.org/1999/xlink" x="0px" y="0px"
	 width="100px" height="100px" viewBox="0 0 100 100" enable-background="new 0 0 100 100" xml:space="preserve">
<path fill="#686869" d="M50.002,2C23.49,2,2,23.49,2,50C2,76.512,23.49,98,50.002,98C76.512,98,98,76.512,98,50
	C98,23.49,76.512,2,50.002,2z M69.523,41.322c0.02,0.406,0.027,0.814,0.027,1.225c0,12.492-9.51,26.898-26.898,26.898
	c-5.338,0-10.308-1.566-14.491-4.248c0.738,0.088,1.49,0.133,2.254,0.133c4.431,0,8.507-1.512,11.743-4.049
	c-4.137-0.074-7.63-2.809-8.833-6.564c0.578,0.109,1.17,0.17,1.78,0.17c0.861,0,1.697-0.115,2.49-0.332
	c-4.325-0.869-7.585-4.689-7.585-9.27c0-0.041,0-0.08,0.002-0.119c1.273,0.709,2.732,1.133,4.281,1.184
	c-2.537-1.697-4.205-4.59-4.205-7.871c0-1.732,0.465-3.355,1.279-4.752c4.663,5.721,11.63,9.484,19.487,9.879
	c-0.162-0.693-0.244-1.414-0.244-2.156c0-5.221,4.232-9.453,9.453-9.453c2.719,0,5.176,1.148,6.9,2.985
	c2.154-0.424,4.178-1.21,6.004-2.294c-0.707,2.207-2.205,4.061-4.156,5.23c1.912-0.229,3.734-0.736,5.43-1.488
	C72.975,38.324,71.371,39.99,69.523,41.322z"/>
</svg>
