<?xml version="1.0" encoding="utf-8"?>
<!-- Generator: Adobe Illustrator 15.1.0, SVG Export Plug-In . SVG Version: 6.00 Build 0)  -->
<!DOCTYPE svg PUBLIC "-//W3C//DTD SVG 1.1//EN" "http://www.w3.org/Graphics/SVG/1.1/DTD/svg11.dtd">
<svg version="1.1" id="Layer_1" xmlns="http://www.w3.org/2000/svg" xmlns:xlink="http://www.w3.org/1999/xlink" x="0px" y="0px"
	 width="100px" height="100px" viewBox="0 0 100 100" enable-background="new 0 0 100 100" xml:space="preserve">
<g>
	<path fill="#686869" d="M59.022,64.316c-1.19,0-1.921,1.256-2.194,3.764c-0.054,0.507-0.082,2.305-0.082,5.391
		c0,2.383,0.049,3.869,0.147,4.462c0.283,1.817,0.993,2.727,2.129,2.727c1.062,0,1.705-1.114,1.934-3.341
		c0.055-0.465,0.083-2.063,0.083-4.799c0-2.832-0.021-4.446-0.065-4.84C60.744,65.438,60.095,64.316,59.022,64.316z"/>
	<path fill="#686869" d="M64.574,38.364c1.746,0,3.07-1.033,3.977-3.099v2.444h4.296V13.112h-4.404v15.711
		c0,1.431-0.082,2.449-0.245,3.061c-0.293,1.064-0.88,1.595-1.76,1.595c-0.813,0-1.356-0.488-1.629-1.467
		c-0.15-0.568-0.227-1.51-0.227-2.829v-16.07H60.35v19.322C60.35,36.388,61.76,38.364,64.574,38.364z"/>
	<polygon fill="#686869" points="30.977,37.71 35.709,37.71 35.709,23.822 42.196,4.956 37.143,4.956 33.382,17.276 29.569,4.956 
		24.37,4.956 30.977,23.822 	"/>
	<path fill="#686869" d="M50.471,38.364c2.832,0,4.736-1.312,5.704-3.933c0.645-1.757,0.965-4.761,0.965-9.011
		c0-4.251-0.32-7.255-0.965-9.012c-0.968-2.634-2.872-3.952-5.704-3.952c-2.834,0-4.732,1.318-5.69,3.952
		c-0.643,1.771-0.964,4.775-0.964,9.012s0.321,7.233,0.964,8.99C45.738,37.045,47.637,38.364,50.471,38.364z M48.308,23.468
		c0-2.236,0.045-3.618,0.13-4.142c0.271-1.643,0.949-2.465,2.033-2.465c1.115,0,1.808,0.937,2.081,2.805
		c0.063,0.51,0.097,2.011,0.097,4.504v2.399c0,2.661-0.027,4.198-0.082,4.608c-0.261,1.883-0.969,2.824-2.13,2.824
		c-1.159,0-1.853-1.097-2.079-3.293c-0.033-0.268-0.05-1.924-0.05-4.97V23.468z"/>
	<path fill="#686869" d="M74.727,63.903c-0.769,0-1.317,0.323-1.643,0.97c-0.39,0.803-0.554,1.947-0.487,3.439l0.021,0.337
		c0.014,0.239,0.022,0.472,0.022,0.696h4.217v-1.033c0-1.406-0.097-2.405-0.292-2.996C76.261,64.375,75.649,63.903,74.727,63.903z"
		/>
	<path fill="#686869" d="M75.771,43.828H24.227c-7.193,0-13.025,5.833-13.025,13.027v25.161c0,7.195,5.832,13.026,13.025,13.026
		h51.545c7.194,0,13.026-5.831,13.026-13.026V56.855C88.798,49.661,82.966,43.828,75.771,43.828z M34.184,57.485h-5.377v27.191
		h-4.661V57.485h-5.378v-5.379h15.416V57.485z M48.76,84.677h-4.271v-2.432c-0.9,2.054-2.217,3.081-3.953,3.081
		c-2.798,0-4.2-1.965-4.2-5.896V60.217h4.208v15.98c0,1.312,0.076,2.249,0.226,2.812c0.271,0.973,0.812,1.459,1.62,1.459
		c0.874,0,1.459-0.528,1.749-1.585c0.162-0.607,0.243-1.621,0.243-3.045V60.217h4.379V84.677z M64.871,80.721
		c-0.716,3.07-2.179,4.605-4.389,4.605c-1.846,0-3.118-1.069-3.824-3.207v2.558h-4.141v-32.57h4.357v10.182
		c0.729-1.815,1.96-2.722,3.696-2.722c2.215,0,3.665,1.578,4.347,4.734c0.351,1.592,0.523,4.346,0.523,8.263
		C65.441,76.366,65.252,79.086,64.871,80.721z M81.232,73.227h-8.555c-0.032,0.27-0.049,0.791-0.049,1.564
		c0,1.821,0.076,3.12,0.229,3.896c0.314,1.594,0.965,2.39,1.949,2.39c1.465,0,2.197-1.598,2.197-4.793h4.098
		c0,0.113,0.006,0.271,0.017,0.476c0.011,0.204,0.017,0.362,0.017,0.476c0,2.817-0.521,4.871-1.562,6.16
		c-1.04,1.286-2.656,1.932-4.847,1.932c-2.266,0-3.897-0.781-4.895-2.345c-0.792-1.241-1.296-3.05-1.514-5.431
		c-0.098-1.045-0.146-3.01-0.146-5.896c0-2.326,0.048-3.979,0.146-4.967c0.195-2,0.623-3.521,1.285-4.563
		c1.086-1.705,2.83-2.558,5.237-2.558c2.321,0,4.017,0.922,5.09,2.766c0.869,1.492,1.302,4.504,1.302,9.039V73.227z"/>
</g>
</svg>
