<?xml version="1.0" encoding="utf-8"?>
<!-- Generator: Adobe Illustrator 15.1.0, SVG Export Plug-In . SVG Version: 6.00 Build 0)  -->
<!DOCTYPE svg PUBLIC "-//W3C//DTD SVG 1.1//EN" "http://www.w3.org/Graphics/SVG/1.1/DTD/svg11.dtd">
<svg version="1.1" id="Layer_1" xmlns="http://www.w3.org/2000/svg" xmlns:xlink="http://www.w3.org/1999/xlink" x="0px" y="0px"
	 width="100px" height="100px" viewBox="0 0 100 100" enable-background="new 0 0 100 100" xml:space="preserve">
<path fill="#686869" d="M43.081,66.138c-2.627,13.768-5.834,26.967-15.334,33.861c-2.932-20.809,4.307-36.436,7.668-53.027
	c-5.73-9.646,0.689-29.062,12.777-24.277c14.873,5.885-12.881,35.865,5.75,39.611c19.453,3.908,27.395-33.751,15.332-46
	C51.847-1.377,18.542,15.904,22.638,41.222c0.996,6.191,7.391,8.068,2.555,16.611c-11.154-2.473-14.484-11.27-14.055-23
	c0.689-19.197,17.25-32.639,33.859-34.498C66.003-2.016,85.718,8.046,88.44,27.806c3.066,22.302-9.48,46.458-31.943,44.72
	C50.409,72.054,47.853,69.038,43.081,66.138z"/>
</svg>
