<?xml version="1.0" encoding="utf-8"?>
<!-- Generator: Adobe Illustrator 15.1.0, SVG Export Plug-In . SVG Version: 6.00 Build 0)  -->
<!DOCTYPE svg PUBLIC "-//W3C//DTD SVG 1.1//EN" "http://www.w3.org/Graphics/SVG/1.1/DTD/svg11.dtd">
<svg version="1.1" id="Layer_1" xmlns="http://www.w3.org/2000/svg" xmlns:xlink="http://www.w3.org/1999/xlink" x="0px" y="0px"
	 width="100px" height="100px" viewBox="0 0 100 100" enable-background="new 0 0 100 100" xml:space="preserve">
<g>
	<path fill="#686869" d="M25.378,15.252c0,5.315-3.924,9.62-10.381,9.62C8.923,24.872,5,20.567,5,15.252
		C5,9.809,9.05,5.631,15.251,5.631C21.454,5.631,25.253,9.809,25.378,15.252z M5.505,94.369V32.468h19.242v61.901H5.505z"/>
	<path fill="#686869" d="M36.261,52.215c0-7.721-0.252-14.176-0.504-19.747h16.707l0.889,8.608h0.379
		c2.531-4.053,8.735-10.002,19.116-10.002C85.506,31.074,95,39.557,95,57.785v36.584H75.758V60.064
		c0-7.977-2.785-13.418-9.748-13.418c-5.316,0-8.479,3.67-9.872,7.215c-0.508,1.266-0.635,3.039-0.635,4.811v35.697H36.261V52.215z"
		/>
</g>
</svg>
