<?xml version="1.0" encoding="utf-8"?>
<!-- Generator: Adobe Illustrator 15.1.0, SVG Export Plug-In . SVG Version: 6.00 Build 0)  -->
<!DOCTYPE svg PUBLIC "-//W3C//DTD SVG 1.1//EN" "http://www.w3.org/Graphics/SVG/1.1/DTD/svg11.dtd">
<svg version="1.1" id="Layer_1" xmlns="http://www.w3.org/2000/svg" xmlns:xlink="http://www.w3.org/1999/xlink" x="0px" y="0px"
	 width="100px" height="100px" viewBox="0 0 100 100" enable-background="new 0 0 100 100" xml:space="preserve">
<g>
	<path fill="#686869" d="M45.962,65.572c0,1.023-0.059,1.752-0.175,2.189c-0.209,0.76-0.629,1.139-1.257,1.139
		c-0.582,0-0.971-0.35-1.165-1.049c-0.107-0.404-0.162-1.078-0.162-2.021V54.344h-3.024v13.811c0,2.826,1.008,4.238,3.019,4.238
		c1.248,0,2.194-0.738,2.842-2.215v1.748h3.07V54.344h-3.147V65.572z"/>
	<path fill="#686869" d="M57.6,53.877c-1.248,0-2.134,0.65-2.657,1.955v-7.318h-3.132v23.412h2.977v-1.84
		c0.507,1.537,1.422,2.307,2.748,2.307c1.588,0,2.641-1.104,3.154-3.311c0.273-1.176,0.41-3.131,0.41-5.863
		c0-2.816-0.125-4.795-0.377-5.939C60.232,55.01,59.191,53.877,57.6,53.877z M57.876,66.637c-0.164,1.6-0.627,2.4-1.39,2.4
		c-0.816,0-1.327-0.652-1.53-1.959c-0.071-0.426-0.106-1.494-0.106-3.207c0-2.219,0.021-3.512,0.06-3.875
		c0.196-1.803,0.722-2.705,1.577-2.705c0.771,0,1.237,0.805,1.402,2.416c0.032,0.283,0.047,1.443,0.047,3.48
		C57.936,65.152,57.915,66.303,57.876,66.637z"/>
	<path fill="#686869" d="M50.314,35.501c0.835,0,1.344-0.677,1.531-2.03c0.039-0.295,0.059-1.399,0.059-3.312v-1.725
		c0-1.792-0.023-2.871-0.069-3.237c-0.196-1.343-0.694-2.016-1.496-2.016c-0.779,0-1.266,0.591-1.461,1.771
		c-0.062,0.376-0.094,1.369-0.094,2.977v1.633c0,2.189,0.012,3.38,0.036,3.572C48.983,34.713,49.481,35.501,50.314,35.501z"/>
	<polygon fill="#686869" points="27.551,52.381 31.417,52.381 31.417,71.926 34.768,71.926 34.768,52.381 38.632,52.381 
		38.632,48.514 27.551,48.514 	"/>
	<path fill="#686869" d="M67.855,53.877c-1.73,0-2.984,0.611-3.764,1.838c-0.477,0.748-0.783,1.842-0.924,3.279
		c-0.07,0.711-0.105,1.898-0.105,3.57c0,2.076,0.035,3.488,0.105,4.238c0.156,1.711,0.518,3.012,1.088,3.904
		c0.717,1.123,1.889,1.686,3.518,1.686c1.574,0,2.736-0.465,3.484-1.389c0.748-0.928,1.121-2.402,1.121-4.428
		c0-0.082-0.004-0.195-0.012-0.342c-0.008-0.148-0.012-0.262-0.012-0.342H69.41c0,2.297-0.525,3.445-1.578,3.445
		c-0.709,0-1.176-0.572-1.402-1.719c-0.109-0.557-0.164-1.49-0.164-2.799c0-0.557,0.012-0.932,0.035-1.125h6.148v-1.334
		c0-3.26-0.311-5.424-0.936-6.498C70.742,54.539,69.523,53.877,67.855,53.877z M69.305,60.906h-3.031
		c0-0.162-0.006-0.33-0.016-0.502l-0.016-0.242c-0.047-1.072,0.07-1.895,0.352-2.471c0.232-0.465,0.627-0.697,1.18-0.697
		c0.664,0,1.104,0.338,1.322,1.016c0.141,0.424,0.209,1.143,0.209,2.152V60.906z"/>
	<path fill="#686869" d="M50,1.999C23.49,1.999,2,23.49,2,50s21.49,48,48,48c26.512,0,48-21.49,48-48S76.512,1.999,50,1.999z
		 M57.44,20.485h3.042v11.552c0,0.948,0.055,1.625,0.162,2.033c0.195,0.703,0.586,1.055,1.172,1.055
		c0.631,0,1.053-0.382,1.264-1.146c0.117-0.439,0.176-1.172,0.176-2.2V20.485h3.166v17.681h-3.088v-1.757
		c-0.65,1.484-1.604,2.228-2.857,2.228c-2.023,0-3.036-1.421-3.036-4.263V20.485z M46.249,22.855
		c0.688-1.894,2.053-2.841,4.09-2.841c2.036,0,3.404,0.947,4.101,2.841c0.463,1.263,0.693,3.422,0.693,6.478
		c0,3.055-0.23,5.214-0.693,6.477c-0.696,1.884-2.064,2.827-4.101,2.827c-2.037,0-3.401-0.948-4.09-2.842
		c-0.462-1.263-0.693-3.417-0.693-6.462S45.787,24.129,46.249,22.855z M35.315,14.623l2.74,8.855l2.703-8.855h3.633l-4.663,13.561
		v9.982h-3.401v-9.982l-4.749-13.561H35.315z M77.889,70.014c0,5.172-4.193,9.363-9.363,9.363H31.475
		c-5.17,0-9.362-4.191-9.362-9.363V51.928c0-5.172,4.192-9.363,9.362-9.363h37.051c5.17,0,9.363,4.191,9.363,9.363V70.014z"/>
</g>
</svg>
