<?xml version="1.0" encoding="utf-8"?>
<!-- Generator: Adobe Illustrator 15.1.0, SVG Export Plug-In . SVG Version: 6.00 Build 0)  -->
<!DOCTYPE svg PUBLIC "-//W3C//DTD SVG 1.1//EN" "http://www.w3.org/Graphics/SVG/1.1/DTD/svg11.dtd">
<svg version="1.1" id="Layer_1" xmlns="http://www.w3.org/2000/svg" xmlns:xlink="http://www.w3.org/1999/xlink" x="0px" y="0px"
	 width="100px" height="100px" viewBox="0 0 100 100" enable-background="new 0 0 100 100" xml:space="preserve">
<g>
	<path fill="#686869" d="M96.352,2.074c-0.545-1.577-2.248-2.408-3.805-1.859c-1.557,0.55-2.379,2.272-1.836,3.849
		c4.598,13.351-4.529,23.317-11.486,28.657l-2.816-4.071c-0.943-1.361-3.059-2.495-4.699-2.52l-15.777,0.071
		c-1.641-0.026-4.084,0.735-5.43,1.689L4.018,60.832c-2.251,1.596-2.799,4.736-1.223,7.018l21.127,30.537
		c1.577,2.279,4.111,2.008,6.362,0.412l46.483-32.941c1.346-0.955,2.885-3.02,3.426-4.59l4.941-15.731
		c0.537-1.572,0.209-3.971-0.734-5.332l-1.717-2.481C92.035,30.497,101.736,17.711,96.352,2.074z M74.725,48.853
		c-3.604,2.553-8.57,1.666-11.092-1.979c-2.523-3.648-1.648-8.673,1.957-11.227c2.859-2.027,6.574-1.88,9.246,0.088
		c-1.346,0.82-2.268,1.292-2.445,1.377c-1.49,0.712-2.127,2.512-1.426,4.02c0.51,1.094,1.584,1.736,2.705,1.736
		c0.426,0,0.859-0.094,1.271-0.289c0.957-0.457,1.988-1.01,3.064-1.652C78.49,43.892,77.322,47.013,74.725,48.853z"/>
</g>
</svg>
