<?xml version="1.0" encoding="utf-8"?>
<!-- Generator: Adobe Illustrator 15.1.0, SVG Export Plug-In . SVG Version: 6.00 Build 0)  -->
<!DOCTYPE svg PUBLIC "-//W3C//DTD SVG 1.1//EN" "http://www.w3.org/Graphics/SVG/1.1/DTD/svg11.dtd">
<svg version="1.1" id="Layer_1" xmlns="http://www.w3.org/2000/svg" xmlns:xlink="http://www.w3.org/1999/xlink" x="0px" y="0px"
	 width="100px" height="100px" viewBox="0 0 100 100" enable-background="new 0 0 100 100" xml:space="preserve">
<path fill="#686869" d="M31.762,63.187c0.658,1.777-17.699,18.172-6.99,31.457c2.508,3.108,11.006-14.875,23.076-23.018
	c6.66-4.492,22.154-14.054,22.154-19.336V18.088C70.002,11.729,45.434,5,26.756,5c-6.838,0-16.754,42.877-16.754,49.688
	C10.002,61.525,31.102,61.408,31.762,63.187z M75.001,62.711c3.289,0,14.999-2,15-15.608V22.863c0-13.609-11.711-15.109-15-15.109
	c-3.286,0,5,2.863,5,11.297v31.864C80.001,59.757,71.715,62.711,75.001,62.711z"/>
</svg>
