<?xml version="1.0" encoding="utf-8"?>
<!-- Generator: Adobe Illustrator 15.1.0, SVG Export Plug-In . SVG Version: 6.00 Build 0)  -->
<!DOCTYPE svg PUBLIC "-//W3C//DTD SVG 1.1//EN" "http://www.w3.org/Graphics/SVG/1.1/DTD/svg11.dtd">
<svg version="1.1" id="Layer_1" xmlns="http://www.w3.org/2000/svg" xmlns:xlink="http://www.w3.org/1999/xlink" x="0px" y="0px"
	 width="100px" height="100px" viewBox="0 0 100 100" enable-background="new 0 0 100 100" xml:space="preserve">
<path fill="#686869" d="M68.24,36.813c-0.658-1.777,17.699-18.172,6.99-31.457c-2.508-3.109-11.006,14.875-23.076,23.018
	c-6.66,4.492-22.153,14.054-22.153,19.336v34.202C30.001,88.271,54.568,95,73.246,95C80.084,95,90,52.123,90,45.312
	C90,38.475,68.9,38.591,68.24,36.813z M25.001,37.289c-3.289,0-15,2-15,15.608v24.239c0,13.609,11.71,15.109,15,15.109
	c3.287,0-5-2.863-5-11.297V49.085C20.001,40.243,28.288,37.289,25.001,37.289z"/>
</svg>
