<?xml version="1.0" encoding="utf-8"?>
<!-- Generator: Adobe Illustrator 15.1.0, SVG Export Plug-In . SVG Version: 6.00 Build 0)  -->
<!DOCTYPE svg PUBLIC "-//W3C//DTD SVG 1.1//EN" "http://www.w3.org/Graphics/SVG/1.1/DTD/svg11.dtd">
<svg version="1.1" id="Layer_1" xmlns="http://www.w3.org/2000/svg" xmlns:xlink="http://www.w3.org/1999/xlink" x="0px" y="0px"
	 width="100px" height="100px" viewBox="0 0 100 100" enable-background="new 0 0 100 100" xml:space="preserve">
<g>
	<g>
		<path fill="#686869" d="M86.087,73.36L66.066,53.34l-2.948,2.941l20.688,20.703c0.545,0.53,0.545,1.408,0,1.938
			c-0.531,0.545-1.402,0.545-1.953,0L61.165,58.229l-2.94,2.939l20.701,20.695c0.531,0.538,0.531,1.408,0,1.954
			c-0.544,0.537-1.414,0.537-1.952,0L56.278,63.122l-2.948,2.947L73.343,86.09c3.515,3.515,9.229,3.515,12.744,0
			C89.608,82.575,89.608,76.868,86.087,73.36z"/>
	</g>
	<polygon fill="#686869" points="30.413,26.372 28.96,20.83 15.323,11.274 11.271,15.319 20.828,28.963 26.376,30.423 37.993,42.05 
		42.038,38.004 	"/>
	<g>
		<path fill="#686869" d="M87.241,23.38l-9.978,9.97c-1.888,1.888-4.938,1.888-6.826,0l-3.412-3.405
			c-1.889-1.889-1.889-4.953,0-6.819l9.977-9.978c-6.469-2.519-14.094-1.182-19.315,4.038c-4.313,4.313-5.983,10.269-5.017,15.853
			l-37.934,37.94c-4.046,4.045-4.046,10.624,0,14.669c4.043,4.044,10.623,4.044,14.667,0l37.942-37.941
			c5.583,0.965,11.532-0.704,15.845-5.003C88.419,37.481,89.755,29.851,87.241,23.38z M18.228,82.147
			c-2.121-2.113-2.121-5.556,0-7.676c2.121-2.113,5.563-2.113,7.683,0c2.12,2.12,2.12,5.562,0,7.676
			C23.791,84.274,20.349,84.274,18.228,82.147z"/>
	</g>
</g>
</svg>
