<?xml version="1.0" encoding="utf-8"?>
<!-- Generator: Adobe Illustrator 15.1.0, SVG Export Plug-In . SVG Version: 6.00 Build 0)  -->
<!DOCTYPE svg PUBLIC "-//W3C//DTD SVG 1.1//EN" "http://www.w3.org/Graphics/SVG/1.1/DTD/svg11.dtd">
<svg version="1.1" id="Layer_1" xmlns="http://www.w3.org/2000/svg" xmlns:xlink="http://www.w3.org/1999/xlink" x="0px" y="0px"
	 width="100px" height="100px" viewBox="0 0 100 100" enable-background="new 0 0 100 100" xml:space="preserve">
<path fill="#686869" d="M45.5,52.5h9v9.999H100c0,0-0.74-22.288-1-29.267C98.754,26.601,96.381,22.5,89,22.5H72.961
	c-2.486-4.686-5.162-9.727-5.984-11.274C65.322,8.106,64.758,7.5,61.08,7.5H38.92c-3.678,0-4.242,0.606-5.896,3.726
	c-0.822,1.548-3.498,6.589-5.982,11.274H11c-7.381,0-9.727,4.102-10,10.732S0,62.499,0,62.499h45.5V52.5z M38.25,17.078
	c1.146-2.159,1.537-2.578,4.082-2.578h15.336c2.545,0,2.938,0.419,4.082,2.578c0.43,0.81,1.592,3.001,2.877,5.422H35.373
	C36.658,20.079,37.82,17.887,38.25,17.078z M54.5,77.499h-9v-10h-43c0,0,0.623,8.99,1,16.613c0.156,3.16,1.086,8.387,8.996,8.387
	h75.008c7.91,0,8.82-5.227,8.996-8.387c0.436-7.84,1-16.613,1-16.613h-43V77.499z"/>
</svg>
