<?xml version="1.0" encoding="utf-8"?>
<!-- Generator: Adobe Illustrator 15.1.0, SVG Export Plug-In . SVG Version: 6.00 Build 0)  -->
<!DOCTYPE svg PUBLIC "-//W3C//DTD SVG 1.1//EN" "http://www.w3.org/Graphics/SVG/1.1/DTD/svg11.dtd">
<svg version="1.1" id="Layer_1" xmlns="http://www.w3.org/2000/svg" xmlns:xlink="http://www.w3.org/1999/xlink" x="0px" y="0px"
	 width="100px" height="100px" viewBox="0 0 100 100" enable-background="new 0 0 100 100" xml:space="preserve">
<path fill="#686869" d="M49.999,60.393c11.951,0,21.955-4.061,22.56-9.361c-1.777-4.985-3.715-10.421-5.619-15.764
	c-1.322,3.811-8.623,6.498-16.941,6.498c-8.316,0-15.617-2.688-16.941-6.497c-1.904,5.343-3.84,10.777-5.617,15.764
	C28.045,56.332,38.047,60.393,49.999,60.393z M49.999,26.867c5.617,0,10.835-1.739,12.363-4.438
	c-2.105-5.913-3.914-10.986-5.057-14.188C56.545,6.108,53.104,5,49.999,5c-3.105,0-6.547,1.108-7.307,3.241
	c-1.141,3.201-2.949,8.274-5.057,14.188C39.163,25.128,44.383,26.867,49.999,26.867z M93.902,65.332l-18.777-7.564l2.162,6.033
	c-0.109,6.395-12.521,11.49-27.289,11.49c-14.766,0-27.18-5.096-27.287-11.49l2.16-6.033L6.096,65.332
	c-5.264,2.121-5.484,6.049-0.49,8.725l35.312,18.936c4.994,2.676,13.167,2.676,18.162,0l35.312-18.936
	C99.387,71.381,99.166,67.453,93.902,65.332z"/>
</svg>
