<?xml version="1.0" encoding="utf-8"?>
<!-- Generator: Adobe Illustrator 15.1.0, SVG Export Plug-In . SVG Version: 6.00 Build 0)  -->
<!DOCTYPE svg PUBLIC "-//W3C//DTD SVG 1.1//EN" "http://www.w3.org/Graphics/SVG/1.1/DTD/svg11.dtd">
<svg version="1.1" id="Layer_1" xmlns="http://www.w3.org/2000/svg" xmlns:xlink="http://www.w3.org/1999/xlink" x="0px" y="0px"
	 width="100px" height="100px" viewBox="0 0 100 100" enable-background="new 0 0 100 100" xml:space="preserve">
<g>
	<path fill="none" d="M29.936,75.706c3.102,0,5.636-2.535,5.636-5.643V55.976h5.627v14.088c0,3.107,2.527,5.643,5.65,5.643
		c3.101,0,5.634-2.535,5.634-5.643V55.976h5.636v14.088c0,3.107,2.526,5.643,5.635,5.643s5.635-2.535,5.635-5.643V55.976h2.07
		c0.138,0,0.269-0.014,0.37-0.014c0.116,0,0.231,0.014,0.377,0.014c3.107,0,5.635-2.534,5.635-5.634V30.612
		c0-3.108-2.527-5.628-5.635-5.628s-5.635,2.52-5.635,5.628v14.095H52.482V30.612c0-3.108-2.533-5.628-5.634-5.628
		c-3.123,0-5.65,2.52-5.65,5.628v14.095h-5.627V30.612c0-3.108-2.534-5.628-5.636-5.628c-3.114,0-5.641,2.52-5.641,5.628v39.452
		C24.295,73.171,26.821,75.706,29.936,75.706z"/>
	<path fill="#676868" d="M49.992,92.546c23.506,0,42.56-19.041,42.56-42.553c0-23.498-19.054-42.538-42.56-42.538
		c-23.498,0-42.545,19.04-42.545,42.538C7.447,73.505,26.494,92.546,49.992,92.546z M24.295,30.612c0-3.108,2.526-5.628,5.641-5.628
		c3.102,0,5.636,2.52,5.636,5.628v14.095h5.627V30.612c0-3.108,2.527-5.628,5.65-5.628c3.101,0,5.634,2.52,5.634,5.628v14.095H66.57
		V30.612c0-3.108,2.527-5.628,5.635-5.628s5.635,2.52,5.635,5.628v19.729c0,3.1-2.527,5.634-5.635,5.634
		c-0.146,0-0.261-0.014-0.377-0.014c-0.102,0-0.232,0.014-0.37,0.014h-2.07v14.088c0,3.107-2.526,5.643-5.635,5.643
		s-5.635-2.535-5.635-5.643V55.976h-5.636v14.088c0,3.107-2.533,5.643-5.634,5.643c-3.123,0-5.65-2.535-5.65-5.643V55.976h-5.627
		v14.088c0,3.107-2.534,5.643-5.636,5.643c-3.114,0-5.641-2.535-5.641-5.643V30.612z"/>
</g>
</svg>
