<?xml version="1.0" encoding="utf-8"?>
<!-- Generator: Adobe Illustrator 15.1.0, SVG Export Plug-In . SVG Version: 6.00 Build 0)  -->
<!DOCTYPE svg PUBLIC "-//W3C//DTD SVG 1.1//EN" "http://www.w3.org/Graphics/SVG/1.1/DTD/svg11.dtd">
<svg version="1.1" id="Layer_1" xmlns="http://www.w3.org/2000/svg" xmlns:xlink="http://www.w3.org/1999/xlink" x="0px" y="0px"
	 width="100px" height="100px" viewBox="0 0 100 100" enable-background="new 0 0 100 100" xml:space="preserve">
<path fill-rule="evenodd" clip-rule="evenodd" fill="#686869" d="M52.53,11.199c39.977,1.714,39.61,42.785,39.61,42.785
	c-7.257-6.719-13.371-6.719-19.482,0c-7.337-6.719-12.227-6.719-18.948,0v26.288c1.219,13.445-10.396,18.948-19.565,12.837
	c-3.596-2.396-3.053-11.001,1.222-9.784c9.17,11.621,9.704-2.445,9.704-2.445V53.984c-6.034-6.719-12.757-6.719-18.871,0
	c-4.278-6.111-10.396-7.333-18.34,0c0,0,0.495-39.542,38.511-42.245l2.448-7.333L52.53,11.199z"/>
</svg>
