<?xml version="1.0" encoding="utf-8"?>
<!-- Generator: Adobe Illustrator 15.1.0, SVG Export Plug-In . SVG Version: 6.00 Build 0)  -->
<!DOCTYPE svg PUBLIC "-//W3C//DTD SVG 1.1//EN" "http://www.w3.org/Graphics/SVG/1.1/DTD/svg11.dtd">
<svg version="1.1" id="Layer_1" xmlns="http://www.w3.org/2000/svg" xmlns:xlink="http://www.w3.org/1999/xlink" x="0px" y="0px"
	 width="100px" height="100px" viewBox="0 0 100 100" enable-background="new 0 0 100 100" xml:space="preserve">
<path fill="#686869" d="M96.998,95c0,0,0-7.396,0-10.527c0-3.134-8.033-7.728-20.397-12.233c-7.704-2.808-12.13-5.341-14.367-8.826
	c-1.342-2.092,5.933,0.186,18.165-8.273c-8.566,0.459-10.893-29.187-10.531-33.021C70.316,17.342,67.107,5,50,5
	C32.894,5,29.685,17.342,30.134,22.119c0.361,3.834-1.966,33.479-10.531,33.021c12.232,8.459,19.506,6.182,18.164,8.273
	c-2.237,3.485-6.664,6.019-14.367,8.826c-12.365,4.506-20.397,9.1-20.397,12.233c0,3.132,0,10.527,0,10.527H96.998z"/>
</svg>
