<?xml version="1.0" encoding="utf-8"?>
<!-- Generator: Adobe Illustrator 15.1.0, SVG Export Plug-In . SVG Version: 6.00 Build 0)  -->
<!DOCTYPE svg PUBLIC "-//W3C//DTD SVG 1.1//EN" "http://www.w3.org/Graphics/SVG/1.1/DTD/svg11.dtd">
<svg version="1.1" id="Layer_1" xmlns="http://www.w3.org/2000/svg" xmlns:xlink="http://www.w3.org/1999/xlink" x="0px" y="0px"
	 width="100px" height="100px" viewBox="0 0 100 100" enable-background="new 0 0 100 100" xml:space="preserve">
<g>
	<path fill="#686869" d="M76.601,72.239c-12.324-4.492-16.264-8.281-16.264-16.395c0-4.871,3.764-3.28,5.415-12.2
		c0.686-3.7,4.01-0.06,4.646-8.507c0-3.367-1.814-4.203-1.814-4.203s0.922-4.982,1.283-8.816C70.314,17.342,67.107,5,50.001,5
		C32.894,5,29.685,17.342,30.134,22.119c0.361,3.834,1.283,8.816,1.283,8.816s-1.814,0.836-1.814,4.203
		c0.635,8.447,3.959,4.807,4.645,8.507c1.654,8.919,5.416,7.329,5.416,12.2c0,8.113-3.938,11.902-16.264,16.395
		c-12.363,4.506-20.396,9.1-20.396,12.233c0,3.132,0,10.527,0,10.527h46.998h46.998c0,0,0-7.396,0-10.527
		C96.999,81.339,88.966,76.745,76.601,72.239z"/>
</g>
</svg>
