<?xml version="1.0" encoding="utf-8"?>
<!-- Generator: Adobe Illustrator 15.1.0, SVG Export Plug-In . SVG Version: 6.00 Build 0)  -->
<!DOCTYPE svg PUBLIC "-//W3C//DTD SVG 1.1//EN" "http://www.w3.org/Graphics/SVG/1.1/DTD/svg11.dtd">
<svg version="1.1" id="Layer_1" xmlns="http://www.w3.org/2000/svg" xmlns:xlink="http://www.w3.org/1999/xlink" x="0px" y="0px"
	 width="100px" height="100px" viewBox="0 0 100 100" enable-background="new 0 0 100 100" xml:space="preserve">
<g>
	<path fill="#686869" d="M66.389,81.295c-7.423-2.706-9.794-4.987-9.794-9.873c0-2.934,2.266-1.976,3.262-7.347
		c0.412-2.228,2.413-0.036,2.798-5.123c0-2.027-1.094-2.531-1.094-2.531s0.555-2.999,0.772-5.309
		c0.27-2.876-1.661-10.309-11.962-10.309c-10.302,0-12.234,7.433-11.963,10.309c0.218,2.31,0.772,5.309,0.772,5.309
		s-1.093,0.504-1.093,2.531c0.382,5.087,2.384,2.896,2.797,5.123c0.996,5.371,3.261,4.413,3.261,7.347
		c0,4.886-2.371,7.167-9.792,9.873c-7.447,2.714-12.284,5.48-12.284,7.366s0,6.34,0,6.34h23.204l3.12-9.047l-1.533-3.328
		l3.382-2.353l3.337,2.373l-1.518,3.308l3.381,9.047H78.67c0,0,0-4.454,0-6.34S73.834,84.009,66.389,81.295z"/>
	<path fill="#686869" d="M90.773,78.232c-5.691-2.075-7.512-3.826-7.512-7.573c0-2.249,1.738-1.515,2.5-5.634
		c0.316-1.709,1.854-0.028,2.146-3.93c0-1.555-0.838-1.941-0.838-1.941s0.426-2.3,0.592-4.07c0.207-2.207-1.273-7.908-9.174-7.908
		s-9.385,5.701-9.176,7.908c0.166,1.771,0.592,4.07,0.592,4.07s-0.838,0.387-0.838,1.941c0.293,3.901,1.828,2.221,2.145,3.93
		c0.764,4.119,2.502,3.385,2.502,5.634c0,3.681-1.764,5.435-7.215,7.462c0.295,0.113,0.6,0.228,0.922,0.345
		c12.568,4.581,14.262,7.725,14.262,10.195v0.083h18.514c0,0,0-3.416,0-4.862C100.195,82.435,96.484,80.312,90.773,78.232z"/>
	<path fill="#686869" d="M34.306,78.096c-3.413-1.263-5.396-2.416-6.405-3.991c-0.62-0.966,2.739,0.085,8.388-3.821
		c-3.957,0.212-5.03-13.479-4.864-15.25c0.209-2.207-1.273-7.907-9.175-7.907c-7.9,0-9.38,5.7-9.173,7.907
		c0.166,1.771-0.909,15.462-4.864,15.25c5.65,3.906,9.008,2.855,8.388,3.821c-1.033,1.61-3.077,2.78-6.635,4.077
		c-5.709,2.081-9.419,4.203-9.419,5.649s0,4.862,0,4.862h18.512v-0.032c0-2.472,1.695-5.615,14.263-10.195
		C33.667,78.34,33.991,78.217,34.306,78.096z"/>
</g>
</svg>
