<?xml version="1.0" encoding="utf-8"?>
<!-- Generator: Adobe Illustrator 15.1.0, SVG Export Plug-In . SVG Version: 6.00 Build 0)  -->
<!DOCTYPE svg PUBLIC "-//W3C//DTD SVG 1.1//EN" "http://www.w3.org/Graphics/SVG/1.1/DTD/svg11.dtd">
<svg version="1.1" id="Layer_1" xmlns="http://www.w3.org/2000/svg" xmlns:xlink="http://www.w3.org/1999/xlink" x="0px" y="0px"
	 width="100px" height="100px" viewBox="0 0 100 100" enable-background="new 0 0 100 100" xml:space="preserve">
<g>
	<path fill="#686869" d="M48.584,54.058l-0.105-1.388l0.399-1.229c0.098-0.283-0.06-0.591-0.345-0.684
		c-0.281-0.094-0.591,0.062-0.68,0.348l-0.965,2.952H35.872c0,0-1.772-2.89-3.515-3.023c-0.182-0.013-0.317,0.001-0.445,0.019
		c-0.788-1.498-1.958-3.535-1.958-3.535s-0.198-0.4-0.625-0.4h-0.364c0,0-0.485-0.012-0.276,0.697l0.373,1.195
		c-4.628-1.363-10.023-2.853-11.117-0.543c0.465-0.091,1.012-0.141,1.649-0.141c3.159,0,7.28,1.162,9.859,1.938l0.401,1.284
		c-2.7-1.503-13.551-3.607-13.34-0.784c0.464-0.094,1.011-0.141,1.654-0.141c3.739,0,8.181,0.535,12.083,2.199l0.393,1.235
		c0,0-3.786-2.208-11.351-2.208c-6.585,0-9.346,1.309-12.113,6.438c-0.414,0.772-1.313,3.663-0.924,5.966
		c0.302,2.087,0.851,4.371,1.81,4.371h0.914c0.657,0,1.966-1.084,1.966-3.3c0.691-6.841,5.148-8.253,8.571-8.509h0.89
		c4.074,0,8.984,3.502,8.579,10.359c-0.07,1.209,0.396,1.605,2.11,1.605h35.527c0.599,0,1.915-0.484,1.915-2.549
		c0-5.996,5.06-9.287,8.604-9.287h0.494c3.733,0,9.049,2.953,9.049,10.332c0,1.125,0.361,1.642,1.931,1.642
		c0,0,4.695-1.933,5.2-5.464c0.501-3.533-7.094-7-14.85-8.574c-7.758-1.58-19.379-1.959-19.379-1.959s-5.539-3.959-11.746-5.924
		l-0.608,0.354l-0.671,0.94c0,0,5.312,2.03,7.254,5.493L48.584,54.058z M89.012,63.395c0.134-0.508,0.416-0.973,0.77-1.318
		c0.209-0.129,0.435-0.205,0.652-0.205c0.677,0,1.04,0.684,0.816,1.523c-0.225,0.844-0.953,1.525-1.627,1.525
		c-0.225,0-0.402-0.08-0.549-0.207C88.91,64.364,88.873,63.906,89.012,63.395z"/>
	<path fill="#686869" d="M70.309,65.725c0,3.957,3.208,7.163,7.164,7.163c3.955,0,7.158-3.206,7.158-7.163
		c0-3.951-3.203-7.158-7.158-7.158C73.517,58.566,70.309,61.773,70.309,65.725z M72.453,65.742c0-2.771,2.243-5.018,5.02-5.018
		c2.77,0,5.02,2.247,5.02,5.018c0,2.774-2.25,5.02-5.02,5.02C74.696,70.762,72.453,68.517,72.453,65.742z"/>
	<path fill="#686869" d="M12.777,65.725c0,3.957,3.209,7.163,7.169,7.163c3.952,0,7.157-3.206,7.157-7.163
		c0-3.951-3.205-7.158-7.157-7.158C15.987,58.566,12.777,61.773,12.777,65.725z M14.925,65.742c0-2.771,2.245-5.018,5.021-5.018
		c2.764,0,5.012,2.247,5.012,5.018c0,2.774-2.248,5.02-5.012,5.02C17.17,70.762,14.925,68.517,14.925,65.742z"/>
</g>
</svg>
