<?xml version="1.0" encoding="utf-8"?>
<!-- Generator: Adobe Illustrator 15.1.0, SVG Export Plug-In . SVG Version: 6.00 Build 0)  -->
<!DOCTYPE svg PUBLIC "-//W3C//DTD SVG 1.1//EN" "http://www.w3.org/Graphics/SVG/1.1/DTD/svg11.dtd">
<svg version="1.1" id="Layer_1" xmlns="http://www.w3.org/2000/svg" xmlns:xlink="http://www.w3.org/1999/xlink" x="0px" y="0px"
	 width="100px" height="100px" viewBox="0 0 100 100" enable-background="new 0 0 100 100" xml:space="preserve">
<g>
	<path fill="#686869" d="M73.74,66.08c0,3.76,3.05,6.808,6.812,6.808c3.753,0,6.8-3.048,6.8-6.808c0-3.75-3.047-6.799-6.8-6.799
		C76.79,59.281,73.74,62.33,73.74,66.08z M76.766,66.083c0-2.089,1.695-3.778,3.786-3.778c2.079,0,3.772,1.689,3.772,3.778
		c0,2.085-1.693,3.78-3.772,3.78C78.461,69.863,76.766,68.168,76.766,66.083z"/>
	<path fill="#686869" d="M16.968,66.08c0,3.76,3.051,6.808,6.807,6.808c3.761,0,6.802-3.048,6.802-6.808
		c0-3.75-3.041-6.799-6.802-6.799C20.019,59.281,16.968,62.33,16.968,66.08z M19.996,66.083c0-2.089,1.686-3.778,3.778-3.778
		c2.088,0,3.779,1.689,3.779,3.778c0,2.085-1.691,3.78-3.779,3.78C21.682,69.863,19.996,68.168,19.996,66.083z"/>
	<path fill="#686869" d="M5.379,61.229c0,1.858,0.256,5.616,2.978,6.404c0.668,0.196,2.114,0.419,5.123,0.882
		c1.813,0.234,1.773-1.458,1.773-2.432c0-4.704,3.816-8.521,8.522-8.521c4.707,0,8.52,3.816,8.52,8.521
		c0,0.894,0.191,2.567,2.188,2.567h35.889c1.617,0,1.656-1.674,1.656-2.567c0-4.704,3.814-8.521,8.526-8.521
		c4.702,0,8.519,3.816,8.519,8.521c0,3.23,2.097,2.833,2.097,2.833l0.941-0.075c0,0,1.693-0.224,2.237-4.434
		c0.48-3.681,0.536-6.393-1.599-6.75c-0.145-0.025-0.474-0.217-0.558-0.483c-0.271-1.274-1.166-4.876-3.258-7.973
		c-0.611-0.906-7.58-4.006-7.58-4.006s-0.135-0.073-0.285-0.051c-0.144,0.021-0.314,0.098-0.601-0.068
		c-2.397-1.596-10.721-7.049-15.795-9.374c-0.04-0.02-0.087-0.033-0.124-0.118c-0.021-0.048-0.037-0.165-0.042-0.192
		c-0.017-0.098-0.077-0.19-0.206-0.269c-0.477-0.291-6.715-2.02-13.527-2.02c-6.821,0-30.868,0.059-37.264,0.059
		c-2.958,0-3.963,3.576-3.963,3.576s-3.284,6.461-3.284,20.253l0.053,0.626C5.356,58.67,5.379,59.375,5.379,61.229z M83.096,51.085
		c0-0.321,0.168-0.439,0.465-0.396c0.797,0.11,2.438,0.649,3.807,1.444c1.09,0.631,2.193,1.999,2.896,3.346
		c0.268,0.516,0.462,1.143,0.551,1.655c0.04,0.22-0.035,0.583-0.328,0.583h-3.129c0,0-0.5-0.023-0.588-0.488
		c-0.257-0.926-1.028-2.951-3.061-4.436C83.709,52.793,83.096,52.241,83.096,51.085z M54.996,35.84c0.048,0,4.356,0.012,7.746,1.496
		c1.683,0.74,5.184,3.266,7.998,5.351c0.794,0.484,1.711,1.176,2.084,1.715c0.22,0.313,0.927,1.861-0.764,1.918l0,0h-0.033
		c-0.02,0.003-0.043,0-0.064,0L58.2,46.286c-0.96,0-1.521-1.218-2.083-2.037c-0.869-1.274-1.026-1.577-1.258-2.935l-0.557-4.799
		C54.299,36.508,54.162,35.84,54.996,35.84z"/>
</g>
</svg>
