<?xml version="1.0" encoding="utf-8"?>
<!-- Generator: Adobe Illustrator 15.1.0, SVG Export Plug-In . SVG Version: 6.00 Build 0)  -->
<!DOCTYPE svg PUBLIC "-//W3C//DTD SVG 1.1//EN" "http://www.w3.org/Graphics/SVG/1.1/DTD/svg11.dtd">
<svg version="1.1" id="Layer_1" xmlns="http://www.w3.org/2000/svg" xmlns:xlink="http://www.w3.org/1999/xlink" x="0px" y="0px"
	 width="100px" height="100px" viewBox="0 0 100 100" enable-background="new 0 0 100 100" xml:space="preserve">
<g>
	<path fill="#686869" d="M15.519,66.653c0.112,0.517,0.397,0.491,0.397,0.491h0.877c0.436,0,0.367-0.511,0.367-0.511h-0.005
		c0.158-2.747,1.812-5.089,4.157-6.231c0.977-0.475,2.071-0.745,3.231-0.745c4.089,0,7.4,3.316,7.4,7.403v1.256
		c0,0-0.055,0.629,0.592,0.629H64.86c0.597,0,0.558-0.578,0.558-0.578l-0.012-1.67c0.188-3.916,3.426-7.04,7.388-7.04
		c2.678,0,5.023,1.424,6.322,3.555c0.002,0.005,0.004,0.005,0.007,0.012c0.684,1.117,0.906,2.332,0.906,3.738v1.333
		c0,0-0.042,0.547,0.538,0.547l3.079-0.712c1.086-0.373,1.093-1.287,1.093-1.287s0-2.63,0-3.462c0-0.84-0.539-1.046-0.539-1.046
		c0-1.736-1.045-2.691-1.045-2.691s-0.103-1.741-1.502-3.182c-0.454-0.471-1.045-0.905-1.817-1.244
		c-4.904-3.375-11.119-2.928-11.119-2.928c-4.932-6.248-13.791-10.673-20.605-11.386c-6.815-0.721-21.707,1.072-21.707,1.072
		c-0.896,0-0.21,0.899-0.21,0.899l0.375,0.502c-0.005,0.002-3.643,2.241-6.366,10.075c-0.714-0.179-1.463,0.511-2.542,2.008
		c-1.076,1.492-0.896,2.416-0.896,2.416c-0.183,0-0.621,0.038-0.894,0.31c-0.32,0.268-0.354,0.748-0.354,0.748
		C15.176,61.505,15.176,64.076,15.519,66.653z M41.043,43.774c0-0.431,0.485-0.425,0.485-0.425c1.528-0.088,3.032-0.141,4.383-0.141
		c1.146,0,2.178,0.038,2.993,0.124c2.663,0.276,5.861,1.313,8.854,2.924c2.256,1.21,4.397,2.74,6.147,4.478
		c0.572,0.568,0.453,0.948-0.783,0.948l-21.508-0.567c0,0-0.486-0.032-0.486-0.47L41.043,43.774z M25.132,50.248
		c0-0.916,0.794-1.751,0.794-1.751c0.25-0.351,1.901-2.08,2.527-2.61c0.719-0.621,1.529-1.139,1.822-1.287
		c1.584-0.79,2.745-0.859,2.745-0.859c1.396-0.131,2.937-0.26,4.501-0.365c0.155-0.012,0.404-0.014,0.518-0.008
		c0.509,0.008,0.398,0.457,0.398,0.457l-0.799,6.222c0,0-0.113,1.05-1.224,1.02l-8.822-0.233
		C26.006,50.79,25.132,50.617,25.132,50.248z"/>
	<path fill="#686869" d="M18.646,66.985c0,3.26,2.641,5.902,5.898,5.902s5.896-2.643,5.896-5.902c0-3.258-2.639-5.9-5.896-5.9
		S18.646,63.728,18.646,66.985z M21.648,66.985c0-1.595,1.295-2.894,2.896-2.894c1.595,0,2.893,1.299,2.893,2.894
		c0,1.601-1.298,2.895-2.893,2.895C22.943,69.88,21.648,68.586,21.648,66.985z"/>
	<path fill="#686869" d="M66.894,66.985c0,3.26,2.641,5.902,5.9,5.902c3.258,0,5.901-2.643,5.901-5.902c0-3.258-2.644-5.9-5.901-5.9
		C69.534,61.085,66.894,63.728,66.894,66.985z M69.901,66.985c0-1.595,1.298-2.894,2.893-2.894c1.596,0,2.892,1.299,2.892,2.894
		c0,1.601-1.296,2.895-2.892,2.895C71.199,69.88,69.901,68.586,69.901,66.985z"/>
</g>
</svg>
