<?xml version="1.0" encoding="utf-8"?>
<!-- Generator: Adobe Illustrator 15.1.0, SVG Export Plug-In . SVG Version: 6.00 Build 0)  -->
<!DOCTYPE svg PUBLIC "-//W3C//DTD SVG 1.1//EN" "http://www.w3.org/Graphics/SVG/1.1/DTD/svg11.dtd">
<svg version="1.1" id="Layer_1" xmlns="http://www.w3.org/2000/svg" xmlns:xlink="http://www.w3.org/1999/xlink" x="0px" y="0px"
	 width="100px" height="100px" viewBox="0 0 100 100" enable-background="new 0 0 100 100" xml:space="preserve">
<g>
	<path fill="#686869" d="M11.108,64.832c0,4.449,3.605,8.056,8.057,8.056c4.444,0,8.044-3.606,8.044-8.056
		c0-4.442-3.6-8.043-8.044-8.043C14.713,56.789,11.108,60.39,11.108,64.832z M13.723,64.832c0-3.001,2.432-5.434,5.442-5.434
		c3.003,0,5.435,2.433,5.435,5.434c0,3.008-2.432,5.445-5.435,5.445C16.154,70.277,13.723,67.84,13.723,64.832z"/>
	<path fill="#686869" d="M73.379,64.832c0,4.449,3.598,8.056,8.053,8.056c4.44,0,8.044-3.606,8.044-8.056
		c0-4.442-3.604-8.043-8.044-8.043C76.977,56.789,73.379,60.39,73.379,64.832z M75.989,64.832c0-3.001,2.431-5.434,5.44-5.434
		c3.001,0,5.436,2.433,5.436,5.434c0,3.008-2.435,5.445-5.436,5.445C78.42,70.277,75.989,67.84,75.989,64.832z"/>
	<path fill="#686869" d="M2.77,61.093c0.611,0.972-1.787,3.266-0.761,4.29c0.27,0.269,3.271,1.907,6.072,2.443
		c1.607,0.304,1.481-1.133,1.395-1.803c-0.054-0.396-0.077-0.798-0.077-1.21c0-5.39,4.371-9.761,9.767-9.761
		c5.389,0,9.76,4.371,9.76,9.761c0,0.588-0.057,1.162-0.158,1.721c-0.155,0.854-0.364,2.425,1.458,2.425h40.429
		c2.085,0,1.34-1.515,1.182-2.332c-0.111-0.587-0.172-1.192-0.172-1.813c0-5.39,4.371-9.761,9.762-9.761s9.764,4.371,9.764,9.761
		c0,0.63,0.161,2.069,1.47,2.158c1.843,0.26,4.088,0.283,5.184-0.496c0,0,1.125-1.129-0.449-2.345
		c-1.578-1.214,3.106-4.05,2.521-6.84c-0.585-2.791-11.08-8.464-31.969-6.934c0,0-0.549-0.532-1.127-0.372
		c-0.238,0.067-0.336,0.292-0.617,0.604c-0.264,0.291-0.717,0.072-0.848-0.006c-2.99-1.768-8.3-4.655-13.967-6.578
		c-0.002-0.083-0.035-0.157-0.137-0.203c-1.196-0.539-8.459-1.914-13.343-1.914c-13.99,0-15.63,3.605-24.84,5.732
		c-2.083,0.481-10.61,0.875-11.849,1.305c0,0-2.295,0.764-0.493,7.023C0.725,55.949,0.977,58.257,2.77,61.093z M94.247,59.278
		c0.145-0.557,0.453-1.062,0.838-1.445c0.23-0.138,0.474-0.223,0.715-0.223c0.738,0,1.134,0.749,0.893,1.668
		c-0.246,0.921-1.047,1.665-1.781,1.665c-0.238,0-0.436-0.083-0.596-0.226C94.135,60.34,94.098,59.835,94.247,59.278z M35.821,53.31
		l-4.772-8.176c-0.189-0.398,0.076-0.57,0.278-0.588c2.385-0.234,5.396-0.397,8.321-0.273c4.7,0.203,9.172,1.396,10.435,1.812
		c4.6,1.51,8.496,3.013,12.451,6.116c0.184,0.146,0.097,0.432-0.383,0.489l-25.432,1.06C36.718,53.75,36.137,53.845,35.821,53.31z
		 M26.908,45.209c0.362-0.102,1.11-0.244,2.112-0.387l2.848,6.92c0,0,0.362,0.812-0.684,0.393l-2.675-1.079
		c0,0-1.13-0.576-1.599-0.902l-0.753-0.525c0,0-0.656-0.758-0.734-0.947C24.232,45.741,24.716,45.846,26.908,45.209z"/>
</g>
</svg>
