<?xml version="1.0" encoding="utf-8"?>
<!-- Generator: Adobe Illustrator 15.1.0, SVG Export Plug-In . SVG Version: 6.00 Build 0)  -->
<!DOCTYPE svg PUBLIC "-//W3C//DTD SVG 1.1//EN" "http://www.w3.org/Graphics/SVG/1.1/DTD/svg11.dtd">
<svg version="1.1" id="Layer_1" xmlns="http://www.w3.org/2000/svg" xmlns:xlink="http://www.w3.org/1999/xlink" x="0px" y="0px"
	 width="100px" height="100px" viewBox="0 0 100 100" enable-background="new 0 0 100 100" xml:space="preserve">
<g>
	<g>
		<g>
			<path fill="#686869" d="M10.817,64.837c0,4.442,3.604,8.051,8.051,8.051c4.447,0,8.049-3.608,8.049-8.051
				c0-4.449-3.602-8.048-8.049-8.048C14.421,56.789,10.817,60.388,10.817,64.837z M13.432,64.837c0-3.007,2.43-5.439,5.437-5.439
				c3.006,0,5.438,2.433,5.438,5.439c0,3.004-2.432,5.439-5.438,5.439C15.862,70.276,13.432,67.841,13.432,64.837z"/>
			<path fill="#686869" d="M73.084,64.837c0,4.442,3.604,8.051,8.057,8.051c4.445,0,8.042-3.608,8.042-8.051
				c0-4.449-3.597-8.048-8.042-8.048C76.688,56.789,73.084,60.388,73.084,64.837z M75.699,64.837c0-3.007,2.428-5.439,5.439-5.439
				c3,0,5.435,2.433,5.435,5.439c0,3.004-2.435,5.439-5.435,5.439C78.127,70.276,75.699,67.841,75.699,64.837z"/>
		</g>
	</g>
	<g>
		<path fill="#686869" d="M2.77,61.094c0.611,0.973-1.787,3.269-0.761,4.293c0.27,0.268,3.271,1.901,6.072,2.439
			c1.607,0.303,1.481-1.133,1.395-1.8c-0.054-0.396-0.077-0.803-0.077-1.209c0-5.393,4.371-9.762,9.767-9.762
			c5.389,0,9.76,4.369,9.76,9.762c0,0.587-0.057,1.161-0.158,1.721c-0.155,0.848-0.364,2.425,1.458,2.425h40.429
			c2.085,0,1.34-1.52,1.182-2.335c-0.111-0.586-0.172-1.192-0.172-1.811c0-5.393,4.371-9.762,9.762-9.762s9.764,4.369,9.764,9.762
			c0,0.628,0.161,2.069,1.47,2.156c1.843,0.258,4.088,0.281,5.184-0.495c0,0,1.125-1.127-0.449-2.343
			c-1.578-1.216,3.106-4.054,2.521-6.838c-0.585-2.798-11.08-8.47-31.969-6.938c0,0-0.549-0.534-1.127-0.376
			c-0.238,0.07-0.336,0.296-0.617,0.608c-0.264,0.29-0.717,0.072-0.848-0.009c-2.918-1.722-8.049-4.51-13.564-6.429l-0.59,2.305
			c4.119,1.396,7.707,2.895,11.334,5.744c0.184,0.146,0.097,0.429-0.383,0.489l-25.432,1.06c0,0-0.582,0.094-0.897-0.44l-4.772-8.18
			c-0.189-0.396,0.076-0.568,0.278-0.582c2.385-0.239,5.396-0.4,8.321-0.274c4.089,0.175,8.006,1.103,9.785,1.613l0.384-2.502
			c-2.646-0.628-8.024-1.498-11.909-1.498c-2.998,0-5.402,0.174-7.463,0.455l0.368,2.398L29.02,44.82l2.848,6.92
			c0,0,0.362,0.816-0.684,0.394l-2.675-1.075c0,0-1.13-0.579-1.599-0.906l-0.753-0.524c0,0-0.656-0.755-0.734-0.945
			c-1.19-2.938-0.707-2.835,1.485-3.473c0.362-0.101,1.11-0.245,2.112-0.39l-0.554-2.154c-6.093,1.175-8.833,3.438-15.399,4.958
			c-2.083,0.48-10.61,0.875-11.849,1.304c0,0-2.295,0.761-0.493,7.023C0.725,55.951,0.977,58.259,2.77,61.094z M94.247,59.279
			c0.145-0.562,0.453-1.06,0.838-1.442c0.23-0.139,0.474-0.223,0.715-0.223c0.738,0,1.134,0.747,0.893,1.665
			c-0.246,0.917-1.047,1.666-1.781,1.666c-0.238,0-0.436-0.084-0.596-0.226C94.135,60.34,94.098,59.834,94.247,59.279z"/>
	</g>
</g>
</svg>
