<?xml version="1.0" encoding="utf-8"?>
<!-- Generator: Adobe Illustrator 15.1.0, SVG Export Plug-In . SVG Version: 6.00 Build 0)  -->
<!DOCTYPE svg PUBLIC "-//W3C//DTD SVG 1.1//EN" "http://www.w3.org/Graphics/SVG/1.1/DTD/svg11.dtd">
<svg version="1.1" id="Layer_1" xmlns="http://www.w3.org/2000/svg" xmlns:xlink="http://www.w3.org/1999/xlink" x="0px" y="0px"
	 width="100px" height="100px" viewBox="0 0 100 100" enable-background="new 0 0 100 100" xml:space="preserve">
<g>
	<path fill="#686869" d="M6.075,49.133h37.35c1.42,0,1.625,0.961,1.625,2.308c0,1.353,0,12.121,0,12.121
		c0,1.24-0.499,1.994-1.591,1.994c-1.177,0-4.135,0-8.833,0c-0.893,0-0.995-0.809-1.062-1.189c-0.852-5.229-4.119-7.516-7.533-7.516
		h-2.558c-3.413,0-6.681,2.286-7.531,7.516l-0.843,6.835c-0.013,0.165-0.143,0.301-0.293,0.301c-0.146,0-0.262-0.136-0.248-0.301
		l0.405-5.657c-0.029,0-0.056,0.012-0.089,0.012c-4.696,0-6.168,0-7.348,0c-2.024,0-3.074-5.028-3.074-6.575c0,0,0-6.188,0-7.54
		C4.451,50.094,4.658,49.133,6.075,49.133z"/>
	<path fill="#686869" d="M46.631,40.64c0,0,0,21.538,0,22.89c0,1.358,0.208,2.314,1.627,2.314h23.44c0.136,0,0.268-0.068,0.395-0.18
		l-0.263,3.204c-0.012,0.154,0.102,0.272,0.251,0.272s0.281-0.118,0.293-0.272c0,0,0.457-4.688,0.799-6.227
		c1.098-4.724,4.146-6.773,7.323-6.773h2.545c3.613,0,6.986,3.019,7.396,9.489c0.013,0.199,0.052,0.456,0.265,0.529l2.275-0.23
		c0,0,1.437-0.426,1.9-3.88c0.465-3.452,1.549-5.908-0.7-5.908h-0.136c0,0-0.451-4.402-4.104-5.761
		c-3.655-1.354-17.025-2.625-17.025-2.625s-0.331-0.059-0.615,0.122c-0.118,0.073-0.298,0.31-0.616,0.093
		c-1.987-1.639-8.53-5.963-10.919-7.037c-0.006-0.004-0.014-0.015-0.02-0.021c-0.281-0.239-0.207-0.545-0.521-0.81
		c-0.36-0.311-2.2-1.216-3.051-1.418c-1.103-0.258-2.788-0.395-5.919-0.396c0,0-0.263,0-2.292,0
		C46.941,38.016,46.631,39.959,46.631,40.64z M91.682,60.893c0.21-0.887,0.895-1.609,1.529-1.609c0.64,0,0.982,0.723,0.77,1.609
		c-0.207,0.893-0.897,1.617-1.533,1.617C91.812,62.51,91.466,61.785,91.682,60.893z M86.465,51.14c0-0.233,0.122-0.317,0.335-0.288
		c0.58,0.079,1.765,0.473,2.752,1.045c0.788,0.452,1.584,1.443,2.094,2.42c0.196,0.375,0.331,0.824,0.397,1.196
		c0.027,0.16-0.025,0.42-0.235,0.42h-2.263c0,0-0.363-0.019-0.424-0.353c-0.187-0.666-0.743-2.132-2.212-3.21
		C86.909,52.37,86.465,51.977,86.465,51.14z M48.89,41.711c0-1.428,0.772-1.777,1.795-1.777s4.625,0,5.52,0
		c1.129,0,2.57,0.439,4.09,1.725l7.353,5.377c1.716,1.163,1.948,2.403-0.998,2.403c0,0-15.226,0-16.492,0
		c-1.267,0-1.267-1.007-1.267-1.604C48.89,47.834,48.89,43.132,48.89,41.711z"/>
	<path fill="#686869" d="M74.503,65.784c-0.002,0.043-0.002,0.082-0.002,0.125c0,0.262,0.015,0.521,0.042,0.767l0.14,0.004
		c0.013,0.108,0.031,0.206,0.049,0.312l-0.14,0.041c0.047,0.298,0.118,0.588,0.201,0.871l0.14-0.025
		c0.032,0.105,0.071,0.205,0.105,0.305l-0.134,0.062c0.104,0.28,0.224,0.553,0.358,0.819l0.136-0.048
		c0.047,0.097,0.101,0.188,0.152,0.278l-0.114,0.087c0.148,0.258,0.314,0.507,0.499,0.744l0.125-0.072
		c0.062,0.083,0.126,0.167,0.193,0.247l-0.092,0.102c0.192,0.236,0.398,0.448,0.627,0.652l0.109-0.096
		c0.078,0.072,0.151,0.144,0.232,0.208l-0.074,0.12c0.236,0.19,0.479,0.364,0.737,0.525l0.089-0.11
		c0.089,0.055,0.18,0.112,0.271,0.161L78.1,71.996c0.262,0.145,0.534,0.269,0.814,0.385l0.068-0.122
		c0.1,0.042,0.2,0.073,0.305,0.112l-0.033,0.141c0.281,0.095,0.576,0.173,0.873,0.236l0.043-0.133
		c0.105,0.021,0.211,0.034,0.315,0.049l-0.006,0.142c0.296,0.047,0.595,0.076,0.896,0.082l0.022-0.136
		c0.051,0,0.104,0.005,0.16,0.005c0.055,0,0.103-0.005,0.158-0.005l0.021,0.136c0.306-0.006,0.606-0.035,0.9-0.082l-0.008-0.142
		c0.109-0.015,0.216-0.028,0.316-0.049l0.048,0.133c0.3-0.063,0.59-0.142,0.872-0.243l-0.031-0.138
		c0.102-0.035,0.201-0.066,0.301-0.108l0.068,0.122c0.285-0.116,0.553-0.24,0.819-0.385l-0.057-0.135
		c0.093-0.047,0.181-0.104,0.269-0.159l0.091,0.11c0.26-0.161,0.501-0.335,0.735-0.527l-0.074-0.118
		c0.082-0.064,0.156-0.136,0.232-0.208l0.111,0.096c0.227-0.208,0.433-0.42,0.629-0.652l-0.096-0.102
		c0.069-0.08,0.131-0.164,0.195-0.249l0.124,0.074c0.184-0.237,0.35-0.486,0.498-0.744l-0.111-0.087
		c0.052-0.091,0.101-0.182,0.151-0.274l0.132,0.044c0.14-0.267,0.256-0.539,0.358-0.819l-0.128-0.062
		c0.034-0.1,0.073-0.199,0.104-0.305l0.137,0.025c0.085-0.283,0.155-0.573,0.203-0.871l-0.141-0.039
		c0.018-0.108,0.037-0.206,0.05-0.314l0.138-0.004c0.031-0.246,0.043-0.505,0.043-0.767c0-0.043-0.003-0.082-0.003-0.125
		l-0.138-0.015c-0.004-0.105-0.01-0.214-0.02-0.315l0.142-0.029c-0.021-0.3-0.058-0.6-0.116-0.887l-0.137,0.011
		c-0.021-0.107-0.054-0.204-0.079-0.309l0.135-0.053c-0.073-0.289-0.169-0.57-0.278-0.851l-0.139,0.036
		c-0.039-0.1-0.081-0.197-0.125-0.289l0.117-0.075c-0.125-0.274-0.27-0.539-0.422-0.79l-0.133,0.063
		c-0.056-0.091-0.115-0.183-0.174-0.267l0.103-0.093c-0.171-0.249-0.361-0.479-0.562-0.706l-0.118,0.082
		c-0.07-0.077-0.141-0.156-0.217-0.233l0.084-0.104c-0.213-0.217-0.441-0.406-0.682-0.591l-0.1,0.106
		c-0.085-0.068-0.166-0.134-0.257-0.194l0.065-0.129c-0.252-0.163-0.506-0.314-0.782-0.453l-0.077,0.115
		c-0.093-0.049-0.189-0.096-0.287-0.138l0.043-0.134c-0.273-0.12-0.561-0.229-0.85-0.317l-0.053,0.132
		c-0.107-0.034-0.216-0.056-0.32-0.085l0.019-0.144c-0.287-0.065-0.585-0.116-0.884-0.156l-0.035,0.135
		c-0.105-0.013-0.213-0.015-0.322-0.02l-0.01-0.145c-0.15-0.009-0.3-0.02-0.449-0.02c-0.151,0-0.301,0.011-0.449,0.02L81.1,59.09
		c-0.108,0.005-0.216,0.007-0.322,0.02l-0.031-0.135c-0.302,0.04-0.599,0.091-0.889,0.156l0.018,0.144
		c-0.104,0.029-0.209,0.051-0.312,0.085l-0.059-0.132c-0.289,0.088-0.574,0.197-0.844,0.313l0.044,0.138
		c-0.101,0.042-0.196,0.089-0.29,0.138l-0.08-0.117c-0.271,0.137-0.527,0.289-0.778,0.455l0.065,0.129
		c-0.088,0.061-0.173,0.126-0.258,0.194l-0.104-0.106c-0.239,0.182-0.464,0.374-0.678,0.591l0.085,0.104
		c-0.075,0.077-0.147,0.156-0.217,0.233l-0.117-0.082c-0.209,0.222-0.391,0.457-0.562,0.706l0.102,0.093
		c-0.062,0.084-0.118,0.176-0.176,0.267l-0.133-0.063c-0.157,0.251-0.298,0.516-0.426,0.79l0.124,0.071
		c-0.046,0.096-0.091,0.193-0.13,0.293L75,63.337c-0.114,0.28-0.207,0.562-0.282,0.851l0.136,0.053
		c-0.025,0.104-0.057,0.201-0.078,0.309l-0.141-0.011c-0.058,0.287-0.094,0.587-0.117,0.887l0.144,0.029
		c-0.007,0.102-0.016,0.21-0.019,0.315L74.503,65.784z M77.758,65.913c0-2.077,1.704-3.769,3.801-3.769
		c2.102,0,3.803,1.691,3.803,3.769c0,2.078-1.701,3.758-3.803,3.758C79.462,69.671,77.758,67.991,77.758,65.913z"/>
	<path fill="#686869" d="M17.412,65.784c0,0.043-0.002,0.082-0.002,0.125c0,0.262,0.015,0.521,0.044,0.767l0.144,0.004
		c0.01,0.108,0.029,0.206,0.046,0.312l-0.143,0.041c0.048,0.298,0.118,0.588,0.201,0.871l0.14-0.025
		c0.031,0.105,0.065,0.205,0.104,0.305l-0.13,0.062c0.096,0.28,0.22,0.553,0.354,0.819l0.136-0.048
		c0.05,0.097,0.102,0.188,0.152,0.278l-0.109,0.087c0.145,0.258,0.311,0.507,0.494,0.744l0.125-0.072
		c0.065,0.083,0.129,0.167,0.199,0.247l-0.096,0.102c0.194,0.236,0.401,0.448,0.622,0.652l0.109-0.096
		c0.08,0.072,0.155,0.144,0.238,0.208l-0.078,0.12c0.238,0.19,0.479,0.364,0.737,0.525l0.088-0.11
		c0.09,0.055,0.183,0.112,0.273,0.161l-0.055,0.133c0.259,0.145,0.534,0.269,0.816,0.385l0.068-0.122
		c0.101,0.042,0.2,0.073,0.305,0.112l-0.034,0.141c0.281,0.095,0.574,0.173,0.873,0.236l0.046-0.133
		c0.101,0.021,0.205,0.034,0.312,0.049l-0.006,0.142c0.295,0.047,0.598,0.076,0.9,0.082l0.019-0.136
		c0.057,0,0.108,0.005,0.162,0.005c0.055,0,0.104-0.005,0.16-0.005l0.018,0.136c0.308-0.006,0.608-0.035,0.905-0.082l-0.007-0.142
		c0.105-0.015,0.214-0.028,0.318-0.049l0.044,0.133c0.298-0.063,0.589-0.142,0.871-0.243l-0.031-0.138
		c0.102-0.035,0.2-0.066,0.3-0.108l0.066,0.122c0.287-0.116,0.556-0.24,0.819-0.385l-0.053-0.135
		c0.095-0.047,0.181-0.104,0.268-0.159l0.093,0.11c0.252-0.161,0.497-0.335,0.734-0.527l-0.079-0.118
		c0.083-0.064,0.157-0.136,0.235-0.208l0.108,0.096c0.227-0.208,0.433-0.42,0.63-0.652l-0.096-0.102
		c0.069-0.08,0.131-0.164,0.197-0.249l0.125,0.074c0.181-0.237,0.347-0.486,0.497-0.744l-0.113-0.087
		c0.05-0.091,0.101-0.182,0.15-0.274l0.134,0.044c0.137-0.267,0.256-0.539,0.359-0.819l-0.129-0.062
		c0.034-0.1,0.072-0.199,0.104-0.305l0.136,0.025c0.085-0.283,0.154-0.573,0.202-0.871l-0.139-0.039
		c0.016-0.108,0.037-0.206,0.051-0.314l0.137-0.004c0.034-0.246,0.045-0.505,0.045-0.767c0-0.043-0.002-0.082-0.002-0.125
		l-0.142-0.015c-0.002-0.105-0.012-0.214-0.017-0.315l0.142-0.029c-0.023-0.3-0.059-0.6-0.116-0.887l-0.137,0.011
		c-0.025-0.107-0.055-0.204-0.081-0.309l0.137-0.053c-0.076-0.289-0.17-0.57-0.279-0.851l-0.138,0.036
		c-0.038-0.1-0.081-0.197-0.124-0.289l0.12-0.075c-0.126-0.274-0.271-0.539-0.426-0.79l-0.131,0.063
		c-0.056-0.091-0.115-0.183-0.178-0.267l0.105-0.093c-0.171-0.249-0.358-0.479-0.562-0.706l-0.119,0.082
		c-0.074-0.077-0.139-0.156-0.217-0.233l0.083-0.104c-0.211-0.217-0.438-0.406-0.677-0.591l-0.102,0.106
		c-0.086-0.068-0.168-0.134-0.257-0.194l0.067-0.129c-0.246-0.163-0.501-0.314-0.781-0.453l-0.076,0.115
		c-0.094-0.049-0.188-0.096-0.289-0.138l0.042-0.134c-0.275-0.12-0.56-0.229-0.846-0.317l-0.058,0.132
		c-0.102-0.034-0.21-0.056-0.317-0.085l0.017-0.144c-0.284-0.065-0.585-0.116-0.883-0.156l-0.037,0.135
		c-0.104-0.013-0.212-0.015-0.319-0.02l-0.007-0.145c-0.153-0.009-0.301-0.02-0.454-0.02c-0.152,0-0.306,0.011-0.452,0.02
		l-0.007,0.145c-0.108,0.005-0.218,0.007-0.323,0.02l-0.034-0.135c-0.299,0.04-0.596,0.091-0.887,0.156l0.02,0.144
		c-0.106,0.029-0.214,0.051-0.316,0.085l-0.058-0.132c-0.289,0.088-0.573,0.197-0.843,0.313l0.042,0.138
		c-0.098,0.042-0.194,0.089-0.289,0.138l-0.078-0.117c-0.271,0.137-0.529,0.289-0.778,0.455l0.065,0.129
		c-0.089,0.061-0.175,0.126-0.257,0.194l-0.102-0.106c-0.241,0.182-0.467,0.374-0.678,0.591l0.085,0.104
		c-0.077,0.077-0.145,0.156-0.214,0.233l-0.12-0.082c-0.208,0.222-0.394,0.457-0.565,0.706l0.105,0.093
		c-0.064,0.084-0.117,0.176-0.177,0.267l-0.133-0.063c-0.157,0.251-0.297,0.516-0.425,0.79l0.122,0.071
		c-0.044,0.096-0.089,0.193-0.125,0.293l-0.14-0.036c-0.11,0.28-0.203,0.562-0.277,0.851l0.138,0.053
		c-0.027,0.104-0.061,0.201-0.081,0.309l-0.14-0.011c-0.06,0.287-0.095,0.587-0.121,0.887l0.149,0.029
		c-0.009,0.102-0.017,0.21-0.019,0.315L17.412,65.784z M20.666,65.913c0-2.077,1.703-3.769,3.804-3.769
		c2.101,0,3.802,1.691,3.802,3.769c0,2.078-1.701,3.758-3.802,3.758C22.369,69.671,20.666,67.991,20.666,65.913z"/>
</g>
</svg>
