<?xml version="1.0" encoding="utf-8"?>
<!-- Generator: Adobe Illustrator 15.1.0, SVG Export Plug-In . SVG Version: 6.00 Build 0)  -->
<!DOCTYPE svg PUBLIC "-//W3C//DTD SVG 1.1//EN" "http://www.w3.org/Graphics/SVG/1.1/DTD/svg11.dtd">
<svg version="1.1" id="Layer_1" xmlns="http://www.w3.org/2000/svg" xmlns:xlink="http://www.w3.org/1999/xlink" x="0px" y="0px"
	 width="100px" height="100px" viewBox="0 0 100 100" enable-background="new 0 0 100 100" xml:space="preserve">
<g>
	<path fill="#686869" d="M15.938,66.049c0,3.779,3.059,6.839,6.835,6.839c3.774,0,6.839-3.06,6.839-6.839
		c0-3.771-3.064-6.834-6.839-6.834C18.996,59.215,15.938,62.278,15.938,66.049z M19.422,66.049c0-1.846,1.502-3.347,3.351-3.347
		s3.35,1.501,3.35,3.347c0,1.855-1.501,3.35-3.35,3.35S19.422,67.904,19.422,66.049z"/>
	<path fill="#686869" d="M69.175,66.049c0,3.779,3.06,6.839,6.836,6.839c3.773,0,6.838-3.06,6.838-6.839
		c0-3.771-3.064-6.834-6.838-6.834C72.234,59.215,69.175,62.278,69.175,66.049z M72.66,66.049c0-1.846,1.504-3.347,3.351-3.347
		c1.848,0,3.351,1.501,3.351,3.347c0,1.855-1.503,3.35-3.351,3.35C74.164,69.398,72.66,67.904,72.66,66.049z"/>
	<path fill="#686869" d="M7.519,56.817l1.213,7.005c0.233,1.365,1.216,1.69,1.216,1.69l3.573,1.243
		c1.406,0.456,1.493-0.468,1.493-0.468l0.645-2.946c0.708-3.74,3.824-5.618,7.565-5.618c3.675,0,6.752,1.911,7.525,5.445
		l0.938,4.398c0.182,0.872,1.091,0.88,1.091,0.88h34.191c0.788,0,0.974-0.538,1.013-0.87l0.563-3.72
		c0.466-4.068,3.632-6.494,7.466-6.494c3.788,0,6.923,2.364,7.451,6.333l0.526,3.504c0.164,0.563,0.753,0.58,0.753,0.58l5.678-0.598
		c0,0,1.105-0.337,1.464-3.079c0.36-2.734,1.224-4.658-0.156-4.978l-1.487-4.699c0,0-0.495-2.128-5.53-3.075
		c-6.418-1.202-13.319-2.023-13.319-2.023l-1.037-0.194c0,0-12.232-8.307-18.444-9.36s-17.389-2.368-25.223,1.135
		c-5.202,2.323-9.433,6.158-9.433,6.158L9.57,47.864C9.57,47.864,7.519,47.939,7.519,56.817z M82.537,54.347h4.706
		c0,0,1.114,0.012,1.442,1.069l0.67,1.955c0.293,0.875,0.207,1.201-0.138,1.201l-5.116-0.227c0,0-0.831,0-0.967-0.613
		c-0.221-0.626-0.644-1.637-1.286-2.564C81.849,55.168,81.492,54.347,82.537,54.347z M45.726,40.74
		c0.168,0.006-0.002,0.012,0.168,0.016c3.005,0.113,7.119,0.884,8.43,1.348c3.086,1.108,7.86,3.771,10.263,5.232
		c0,0,3.602,2.238,3.906,2.738c0.307,0.498-0.305,0.458-0.305,0.458L47.915,49.26L45.726,40.74z M28.941,48.11l2.814-6.568
		c2.268-1.313,6.509-0.9,12.182-0.723l1.27,8.292L28.941,48.11z M24.816,46.569c0,0,2.548-2.828,5.05-3.796l-2.568,5.237
		l-0.01,0.024l-2.848-0.202C24.44,47.833,23.572,47.808,24.816,46.569z"/>
</g>
</svg>
