<?xml version="1.0" encoding="utf-8"?>
<!-- Generator: Adobe Illustrator 15.1.0, SVG Export Plug-In . SVG Version: 6.00 Build 0)  -->
<!DOCTYPE svg PUBLIC "-//W3C//DTD SVG 1.1//EN" "http://www.w3.org/Graphics/SVG/1.1/DTD/svg11.dtd">
<svg version="1.1" id="Layer_1" xmlns="http://www.w3.org/2000/svg" xmlns:xlink="http://www.w3.org/1999/xlink" x="0px" y="0px"
	 width="100px" height="100px" viewBox="0 0 100 100" enable-background="new 0 0 100 100" xml:space="preserve">
<g>
	<path fill="#686869" d="M71.516,65.565c0,4.041,3.276,7.322,7.325,7.322c4.042,0,7.317-3.281,7.317-7.322
		c0-4.039-3.275-7.315-7.317-7.315C74.792,58.25,71.516,61.526,71.516,65.565z M74.214,65.565c0-2.548,2.068-4.619,4.627-4.619
		c2.55,0,4.618,2.071,4.618,4.619c0,2.555-2.068,4.629-4.618,4.629C76.282,70.194,74.214,68.12,74.214,65.565z"/>
	<path fill="#686869" d="M16.592,65.565c0,4.041,3.281,7.322,7.325,7.322c4.043,0,7.315-3.281,7.315-7.322
		c0-4.039-3.272-7.315-7.315-7.315C19.874,58.25,16.592,61.526,16.592,65.565z M19.29,65.565c0-2.548,2.074-4.619,4.627-4.619
		c2.55,0,4.621,2.071,4.621,4.619c0,2.555-2.07,4.629-4.621,4.629C21.364,70.194,19.29,68.12,19.29,65.565z"/>
	<path fill="#686869" d="M6.463,59.414c0,1.671,0.213,5.053,2.521,5.762c0.77,0.236,2.25,0.607,4.555,1.147
		c1.095,0.308,1.224-0.398,1.224-0.76c0-5.047,4.102-9.147,9.156-9.147c5.053,0,9.148,4.101,9.148,9.147
		c0,0.586,0,1.711,1.208,1.711h34.243c1.009,0,1.171-1.125,1.171-1.711c0-5.047,4.097-9.147,9.153-9.147
		c5.048,0,9.149,4.101,9.149,9.147c0,0.265-0.014,0.521-0.036,0.779c-0.03,0.339,0.194,1.14,0.973,0.8
		c0.518-0.151,1.019-0.39,1.448-0.743c0,0,2.715-3.464,3.079-6.598c0.391-3.353-0.686-3.636-1.333-3.636
		c0,0-1.812-4.567-6.072-6.191c-4.258-1.633-14.703-3.416-14.703-3.416s-1.6-0.292-2.336-0.752c0,0-13.021-10.024-13.666-10.439
		c-1.127-0.733-2.729-1.208-6.3-1.388c-2.204-2.099-5.057-2.238-5.057-2.238h-2.556v0.056H27.454v-0.056h-2.978
		c-0.86,0-2.231,1.775-2.974,2.94c-0.708,0.09-1.411,0.17-2.137,0.276c-2.712,0.419-8.595,6.886-10.56,10.115
		c-1.015,1.66-1.553,4.026-1.553,7.324c0,3.301,0,2.641,0,3.769C7.251,57.296,6.463,57.743,6.463,59.414z M83.41,51.293
		c0-0.268,0.139-0.365,0.392-0.333c0.671,0.091,2.049,0.548,3.196,1.211c0.916,0.531,1.847,1.683,2.437,2.813
		c0.224,0.437,0.385,0.962,0.464,1.393c0.031,0.186-0.033,0.488-0.279,0.488h-2.627c0,0-0.424-0.02-0.494-0.416
		c-0.215-0.77-0.863-2.476-2.57-3.721C83.928,52.729,83.41,52.269,83.41,51.293z M45.656,33.898c-0.163,0-0.319-0.002-0.494-0.002
		c-5.521,0-12.783-0.39-21.38,0.508c0.417-0.755,1.034-1.575,1.551-1.575h2.122v-0.055h13.978v0.055h0.296
		C41.727,32.829,43.983,32.726,45.656,33.898z M45.067,35.69c1.277,0.051,2.597,0.112,3.946,0.193c0,0,2.21,0.106,3.658,0.802
		c1.027,0.488,14.51,11.041,15.16,11.625c0.912,0.819,2.58,1.827,0.14,1.571l-5.524-0.575l-15.652-1.642L45.067,35.69z
		 M29.06,45.811l2.139-10.124c3.27-0.126,7.257-0.185,11.766-0.065l0.447,11.691L29.06,45.811z M16.031,42.063l3.556-4.842
		c0,0,0.37-0.589,2.089-0.824c0.715-0.102,3-0.356,6.482-0.559l-2.289,9.636l-8.94-0.933C16.929,44.542,14.088,44.33,16.031,42.063z
		"/>
</g>
</svg>
