<?xml version="1.0" encoding="utf-8"?>
<!-- Generator: Adobe Illustrator 15.1.0, SVG Export Plug-In . SVG Version: 6.00 Build 0)  -->
<!DOCTYPE svg PUBLIC "-//W3C//DTD SVG 1.1//EN" "http://www.w3.org/Graphics/SVG/1.1/DTD/svg11.dtd">
<svg version="1.1" id="Layer_1" xmlns="http://www.w3.org/2000/svg" xmlns:xlink="http://www.w3.org/1999/xlink" x="0px" y="0px"
	 width="100px" height="100px" viewBox="0 0 100 100" enable-background="new 0 0 100 100" xml:space="preserve">
<g>
	<path fill="#686869" d="M73.74,66.08c0,3.758,3.05,6.808,6.812,6.808c3.753,0,6.8-3.05,6.8-6.808c0-3.75-3.047-6.797-6.8-6.797
		C76.79,59.283,73.74,62.33,73.74,66.08z M76.766,66.084c0-2.09,1.695-3.78,3.786-3.78c2.079,0,3.772,1.69,3.772,3.78
		c0,2.086-1.693,3.777-3.772,3.777C78.461,69.861,76.766,68.17,76.766,66.084z"/>
	<path fill="#686869" d="M16.968,66.08c0,3.758,3.051,6.808,6.807,6.808c3.761,0,6.802-3.05,6.802-6.808
		c0-3.75-3.041-6.797-6.802-6.797C20.019,59.283,16.968,62.33,16.968,66.08z M19.996,66.084c0-2.09,1.686-3.78,3.778-3.78
		c2.088,0,3.779,1.69,3.779,3.78c0,2.086-1.691,3.777-3.779,3.777C21.682,69.861,19.996,68.17,19.996,66.084z"/>
	<path fill="#686869" d="M5.379,61.227c0,1.859,0.256,5.617,2.978,6.404c0.668,0.197,2.114,0.42,5.123,0.885
		c1.813,0.234,1.773-1.459,1.773-2.432c0-4.703,3.816-8.522,8.522-8.522c4.707,0,8.52,3.819,8.52,8.522
		c0,0.892,0.191,2.566,2.188,2.566h35.889c1.617,0,1.656-1.675,1.656-2.566c0-4.703,3.814-8.522,8.526-8.522
		c4.702,0,8.519,3.819,8.519,8.522c0,3.23,2.097,2.832,2.097,2.832l0.941-0.076c0,0,1.693-0.221,2.237-4.433
		c0.48-3.681,0.536-6.394-1.599-6.751c-0.145-0.025-0.474-0.217-0.558-0.483c-0.271-1.272-1.166-4.876-3.258-7.97
		c-0.611-0.91-7.58-4.008-7.58-4.008s-0.135-0.072-0.285-0.052c-0.144,0.021-0.314,0.097-0.601-0.067
		c-2.397-1.598-10.721-7.051-15.795-9.375c-0.04-0.02-0.087-0.033-0.124-0.12c-0.021-0.044-0.037-0.163-0.042-0.19
		c-0.017-0.1-0.077-0.191-0.206-0.268c-0.477-0.293-6.715-2.02-13.527-2.02c-6.821,0-30.868,0.059-37.264,0.059
		c-2.958,0-3.963,3.576-3.963,3.576S6.263,43.197,6.263,56.99l0.053,0.627C5.356,58.668,5.379,59.374,5.379,61.227z M83.096,51.085
		c0-0.321,0.168-0.438,0.465-0.396c0.797,0.109,2.438,0.65,3.807,1.442c1.09,0.632,2.193,1.999,2.896,3.347
		c0.268,0.518,0.462,1.141,0.551,1.654c0.04,0.221-0.035,0.584-0.328,0.584h-3.129c0,0-0.5-0.023-0.588-0.49
		c-0.257-0.924-1.028-2.948-3.061-4.434C83.709,52.793,83.096,52.24,83.096,51.085z M54.996,35.84c0.048,0,4.356,0.012,7.746,1.497
		c1.683,0.74,5.184,3.264,7.998,5.351c0.794,0.482,1.711,1.174,2.084,1.713c0.22,0.314,0.927,1.863-0.764,1.92l0,0h-0.033
		c-0.02,0.004-0.043,0-0.064,0L58.2,46.287c-0.96,0-1.521-1.221-2.083-2.039c-0.869-1.273-1.026-1.576-1.258-2.936l-0.557-4.799
		C54.299,36.506,54.162,35.84,54.996,35.84z M32.749,36.035h16.694c0.638,0,0.604,0.618,0.604,0.618v8.794
		c0,0,0.013,0.84-0.774,0.84H32.918c-0.79,0-0.778-0.84-0.778-0.84v-8.794C32.14,36.653,32.109,36.035,32.749,36.035z
		 M10.094,45.127c0.181-2.918,0.999-4.699,1.008-4.718l0.051-0.12c0.897-2.215,1.503-3.285,1.868-3.801
		c0.253-0.354,0.492-0.459,0.828-0.459l14.686,0.006c0.643,0,0.606,0.618,0.606,0.618v8.794c0,0,0.014,0.84-0.775,0.84
		l-17.317-0.059C10.338,46.229,10.072,45.479,10.094,45.127z"/>
</g>
</svg>
