<?xml version="1.0" encoding="utf-8"?>
<!-- Generator: Adobe Illustrator 15.1.0, SVG Export Plug-In . SVG Version: 6.00 Build 0)  -->
<!DOCTYPE svg PUBLIC "-//W3C//DTD SVG 1.1//EN" "http://www.w3.org/Graphics/SVG/1.1/DTD/svg11.dtd">
<svg version="1.1" id="Layer_1" xmlns="http://www.w3.org/2000/svg" xmlns:xlink="http://www.w3.org/1999/xlink" x="0px" y="0px"
	 width="100px" height="100px" viewBox="0 0 100 100" enable-background="new 0 0 100 100" xml:space="preserve">
<g>
	<path fill="#686869" d="M75.229,66.103c0,3.651,2.959,6.614,6.611,6.614c3.654,0,6.611-2.963,6.611-6.614
		c0-3.647-2.957-6.608-6.611-6.608C78.188,59.494,75.229,62.455,75.229,66.103z M77.662,66.105c0-2.303,1.873-4.175,4.178-4.175
		c2.309,0,4.172,1.872,4.172,4.175c0,2.305-1.863,4.175-4.172,4.175C79.535,70.28,77.662,68.41,77.662,66.105z"/>
	<path fill="#686869" d="M17.024,66.103c0,3.743,3.036,6.785,6.783,6.785c3.744,0,6.779-3.042,6.779-6.785s-3.035-6.778-6.779-6.778
		C20.061,59.324,17.024,62.359,17.024,66.103z M19.629,66.105c0-2.303,1.866-4.175,4.179-4.175c2.304,0,4.168,1.872,4.168,4.175
		c0,2.305-1.864,4.175-4.168,4.175C21.495,70.28,19.629,68.41,19.629,66.105z"/>
	<path fill="#686869" d="M3.62,61.339c0,1.683,0.232,5.083,2.732,5.796c0.909,0.261,5.347,1.481,7.402,1.811
		c0,0,1.557,0.348,1.557-1.134v-1.808c0-0.031,0.009-0.053,0.009-0.087c0.1-4.603,3.854-8.306,8.486-8.306
		c4.352,0,7.934,3.273,8.423,7.493c0.033,0.295,0.075,0.899,0.598,0.899h39.798c0.922,0,1.027-1.116,1.027-1.116
		c0.59-3.997,4.027-7.063,8.189-7.063c4.572,0,8.275,3.709,8.275,8.278c0,0.888,0.346,2.504,1.283,2.32
		c0.602-0.115,1.344-0.288,2.17-0.549c2.156-0.676,2.566-1.87,2.566-1.87s0.545-1.911,0-5.727c-0.113-0.605-1.143-0.903-1.143-0.903
		c-0.494-2.196-1.109-2.748-1.109-2.748c-6.531-4.629-20.949-5.21-20.949-5.21c-0.447,0.632-1.789,0.122-1.789,0.122
		c-8.484-6.833-12.193-8.019-12.193-8.019l0.07-0.403c0,0-3.939-1.562-7.727-1.978c-2.688-2.162-5.967-2.31-5.967-2.31h-3.171v0.068
		H23.268v-0.068h-3.707c-1.002,0-1.976,1.121-2.794,2.303c-1.143,0.136-2.073,0.395-2.719,0.642
		c-0.522,0.193,0.151,0.619,0.557,0.84c-0.015-0.013-0.025-0.017-0.045-0.026c-1.412,1.287-4.468,4.242-6.993,7.957
		c0.002-0.003,0.004-0.003,0.006-0.003C6.012,51.27,6.075,52.93,6.075,52.93v4.438c0,0,0.008,0.62-0.65,0.757
		C4.588,58.417,3.62,59.841,3.62,61.339z M87.518,55.8c0-0.251,0.131-0.34,0.363-0.312c0.629,0.089,1.922,0.515,2.998,1.139
		c0.859,0.494,1.732,1.072,2.285,2.139c0.213,0.407,0.363,0.898,0.434,1.305c0.031,0.176-0.027,0.455-0.258,0.455h-2.467
		c0,0-0.4-0.018-0.463-0.387c-0.203-0.727-0.809-1.824-2.408-2.996C88.002,57.142,87.518,56.712,87.518,55.8z M47.95,41.055
		c-0.227-0.003-19.021-0.243-29.243-0.008c0.569-1.023,2.682-1.093,3.381-1.093h1.179v-0.078h18.953v0.078h0.403
		C42.624,39.954,46.618,40.006,47.95,41.055z M49.501,51.655l-2.231-8.287c-0.081-0.301,0.24-0.381,0.24-0.381h2.544
		c0,0,5.368-0.038,8.875,1.889c2.865,1.569,6.646,4.396,9.791,7.289c0.227,0.212,0.084,0.737-0.25,0.739l-18.358-0.811
		C50.113,52.094,49.606,52.061,49.501,51.655z M28.241,50.723l3.379-7.395c0.173-0.375,0.649-0.355,0.649-0.355h12.689
		c0.611,0,0.764,0.547,0.764,0.547l2.149,8.005c0,0,0.198,0.48-0.43,0.459l-18.788-0.679C27.858,51.276,28.241,50.723,28.241,50.723
		z M14.842,50.022l3.006-6.582c0.199-0.432,0.793-0.453,0.793-0.453h10.476c0.665,0,0.378,0.426,0.378,0.426l-3.351,7.348
		c0,0-0.106,0.432-0.702,0.4l-10.176-0.535C14.582,50.591,14.842,50.022,14.842,50.022z"/>
</g>
</svg>
