<?xml version="1.0" encoding="utf-8"?>
<!-- Generator: Adobe Illustrator 15.1.0, SVG Export Plug-In . SVG Version: 6.00 Build 0)  -->
<!DOCTYPE svg PUBLIC "-//W3C//DTD SVG 1.1//EN" "http://www.w3.org/Graphics/SVG/1.1/DTD/svg11.dtd">
<svg version="1.1" id="Layer_1" xmlns="http://www.w3.org/2000/svg" xmlns:xlink="http://www.w3.org/1999/xlink" x="0px" y="0px"
	 width="100px" height="100px" viewBox="0 0 100 100" enable-background="new 0 0 100 100" xml:space="preserve">
<path fill="#686869" d="M77.278,32.56l4.328-7.229l-7.031-4.618l0.775-8.386l-8.344-1.097l-2.938-7.906l-7.992,2.63l-6.071-5.831
	l-6.071,5.831l-7.992-2.63l-2.943,7.906l-8.343,1.097l0.776,8.386l-7.039,4.618l4.335,7.229l-4.335,7.204l7.039,4.611l-0.776,8.387
	l8.343,1.104l2.943,7.887l7.992-2.617l6.071,5.838l6.071-5.838l7.992,2.617l2.938-7.887l8.344-1.104l-0.775-8.387l7.031-4.611
	L77.278,32.56z M57.581,65.717l-3.572,3.424l-4.003,3.861l-4.016-3.861l-3.559-3.424l-4.697,1.539l-4.729,1.541v31.082
	l16.693-10.486l17.302,10.486V68.807l-4.729-1.551L57.581,65.717z"/>
</svg>
